<svg xmlns="http://www.w3.org/2000/svg" xmlns:xlink="http://www.w3.org/1999/xlink" width="100" zoomAndPan="magnify" viewBox="0 0 75 74.999997" height="100" preserveAspectRatio="xMidYMid meet" version="1.0"><defs><g/><clipPath id="55d43e5458"><path d="M 16.269531 6.910156 L 68 6.910156 L 68 68.410156 L 16.269531 68.410156 Z M 16.269531 6.910156 " clip-rule="nonzero"/></clipPath><clipPath id="e90eac2e97"><path d="M 16.269531 30 L 65 30 L 65 48 L 16.269531 48 Z M 16.269531 30 " clip-rule="nonzero"/></clipPath></defs><g clip-path="url(#55d43e5458)"><path fill="#000000" d="M 25.074219 21.769531 C 24.824219 21.84375 24.570312 21.90625 24.308594 21.960938 C 24.570312 21.910156 24.824219 21.84375 25.074219 21.769531 Z M 45.078125 6.933594 C 35.488281 6.933594 25.894531 7.019531 16.304688 7.019531 L 16.304688 19.6875 C 16.375 19.773438 16.445312 19.855469 16.519531 19.9375 C 16.523438 19.941406 16.523438 19.941406 16.527344 19.941406 C 17.933594 21.492188 20.082031 22.539062 23.355469 21.957031 C 23.582031 21.914062 23.8125 21.867188 24.046875 21.8125 C 24.722656 21.652344 25.445312 21.425781 26.214844 21.121094 C 26.21875 21.117188 26.21875 21.117188 26.21875 21.117188 C 26.582031 20.976562 26.953125 20.816406 27.339844 20.640625 C 27.339844 20.640625 23.457031 10.53125 23.636719 10.265625 L 24.398438 9.140625 L 26.046875 10.792969 C 26.683594 11.425781 27.398438 11.976562 28.171875 12.433594 L 30.972656 14.074219 L 34.035156 14.527344 L 37.722656 15.125 L 40.664062 15.601562 L 46.050781 16.90625 L 49.507812 18.378906 L 51.777344 19.738281 L 53.757812 22.121094 L 54.273438 23.066406 L 54.835938 24.105469 L 63.128906 27.339844 L 63.5625 27.507812 L 66.171875 28.523438 L 64.691406 30.699219 C 64.691406 30.699219 55.527344 37.3125 54.707031 37.3125 L 46.332031 37.3125 L 43.160156 37.597656 L 37.964844 38.164062 C 37.613281 38.199219 37.261719 38.265625 36.914062 38.351562 L 33.464844 39.242188 L 27.117188 41.167969 L 23.035156 43.039062 L 21.640625 43.054688 L 21.902344 42.867188 L 22.199219 42.703125 C 20.703125 43.480469 19.464844 44.34375 18.441406 45.25 C 17.589844 46 16.882812 46.777344 16.304688 47.550781 L 16.304688 68.0625 L 27.8125 68.0625 L 27.8125 50.097656 L 45.078125 50.097656 C 74.988281 50.097656 74.902344 6.933594 45.078125 6.933594 Z M 23.519531 22.082031 L 23.375 22.203125 L 23.519531 22.082031 C 23.785156 22.054688 24.050781 22.011719 24.308594 21.960938 C 24.050781 22.011719 23.785156 22.054688 23.519531 22.082031 Z M 25.804688 21.515625 C 25.648438 21.578125 25.484375 21.640625 25.320312 21.691406 C 25.484375 21.636719 25.648438 21.578125 25.804688 21.515625 Z M 25.804688 21.515625 " fill-opacity="1" fill-rule="nonzero"/></g><path fill="#5e17eb" d="M 63.453125 28.390625 C 63.453125 28.117188 63.464844 27.84375 63.496094 27.578125 C 63.503906 27.484375 63.515625 27.394531 63.527344 27.304688 L 55.117188 24.023438 C 55.117188 24.023438 54.691406 15.835938 30.914062 13.847656 C 27.035156 12.296875 24.242188 8.84375 24.242188 8.84375 C 24.242188 8.84375 18.585938 15.429688 27.269531 20.550781 C 27.253906 20.585938 25.671875 21.355469 23.417969 21.902344 L 23.289062 22.023438 L 23.203125 22.09375 L 21.082031 23.90625 L 28.265625 23.621094 C 27.449219 23.964844 26.660156 24.371094 25.914062 24.84375 C 25.164062 25.3125 24.457031 25.847656 23.792969 26.4375 L 23.667969 26.550781 C 23.667969 26.550781 39.566406 21.492188 54.046875 29.4375 C 54.53125 29.546875 55.914062 30.09375 55.914062 30.09375 C 56.605469 30.339844 57.316406 30.535156 58.039062 30.6875 C 58.59375 30.804688 59.15625 30.890625 59.726562 30.949219 C 60.289062 31.007812 60.859375 31.035156 61.429688 31.035156 L 62.992188 31.035156 L 63.859375 30.894531 C 63.59375 30.105469 63.453125 29.265625 63.453125 28.390625 Z M 63.453125 28.390625 " fill-opacity="1" fill-rule="nonzero"/><path fill="#00bf63" d="M 66.613281 28.507812 L 64.773438 31.207031 L 64.261719 31.878906 L 59.773438 36.210938 C 59.648438 36.277344 59.519531 36.339844 59.394531 36.402344 C 58.769531 36.703125 58.121094 36.941406 57.453125 37.109375 C 56.648438 37.3125 55.820312 37.417969 54.984375 37.417969 L 46.492188 37.417969 L 43.273438 37.703125 L 38.003906 38.277344 C 37.644531 38.316406 37.292969 38.382812 36.941406 38.472656 L 33.441406 39.371094 L 27.003906 41.328125 L 22.863281 43.222656 L 21.714844 43.050781 L 22.011719 42.882812 C 22.015625 42.882812 22.015625 42.882812 22.015625 42.882812 L 23.03125 42.316406 C 24.832031 41.3125 26.710938 40.441406 28.640625 39.71875 L 31.257812 38.738281 L 37.070312 37.148438 C 37.257812 37.097656 37.445312 37.054688 37.636719 37.023438 L 42.363281 36.21875 C 42.625 36.175781 42.886719 36.148438 43.152344 36.136719 L 52.875 35.804688 L 58.417969 35.804688 C 57.332031 35.0625 56.390625 34.121094 55.644531 33.039062 L 56.183594 33.144531 C 56.410156 33.191406 56.640625 33.214844 56.871094 33.214844 C 56.984375 33.214844 57.101562 33.207031 57.214844 33.195312 C 57.289062 33.1875 57.363281 33.179688 57.433594 33.175781 C 57.511719 33.164062 57.589844 33.15625 57.664062 33.148438 C 57.71875 33.140625 57.773438 33.132812 57.828125 33.125 C 57.90625 33.117188 57.988281 33.105469 58.066406 33.09375 C 58.113281 33.085938 58.15625 33.082031 58.203125 33.074219 C 58.238281 33.066406 58.277344 33.0625 58.316406 33.058594 C 58.367188 33.050781 58.414062 33.042969 58.464844 33.03125 C 58.472656 33.03125 58.480469 33.03125 58.488281 33.027344 C 58.527344 33.023438 58.566406 33.015625 58.605469 33.007812 C 58.613281 33.007812 58.621094 33.003906 58.628906 33.003906 C 58.671875 33 58.710938 32.992188 58.753906 32.984375 C 58.804688 32.972656 58.851562 32.964844 58.902344 32.957031 C 58.941406 32.949219 58.980469 32.941406 59.023438 32.933594 C 59.078125 32.925781 59.128906 32.914062 59.183594 32.902344 C 59.1875 32.902344 59.195312 32.898438 59.199219 32.898438 C 59.265625 32.886719 59.332031 32.871094 59.398438 32.859375 C 59.40625 32.855469 59.410156 32.855469 59.417969 32.855469 C 59.488281 32.839844 59.554688 32.824219 59.621094 32.808594 C 59.683594 32.796875 59.746094 32.78125 59.804688 32.769531 C 59.832031 32.761719 59.859375 32.757812 59.886719 32.75 C 59.9375 32.738281 59.992188 32.726562 60.042969 32.714844 C 60.050781 32.710938 60.058594 32.710938 60.066406 32.707031 C 60.132812 32.691406 60.199219 32.675781 60.269531 32.65625 C 60.339844 32.640625 60.410156 32.621094 60.480469 32.601562 C 60.484375 32.601562 60.484375 32.601562 60.484375 32.601562 C 60.554688 32.582031 60.625 32.5625 60.699219 32.542969 C 60.769531 32.523438 60.839844 32.503906 60.910156 32.484375 C 60.960938 32.46875 61.007812 32.453125 61.058594 32.4375 C 61.0625 32.4375 61.070312 32.433594 61.074219 32.433594 C 61.125 32.421875 61.171875 32.40625 61.222656 32.390625 C 61.367188 32.34375 61.511719 32.296875 61.660156 32.25 C 61.707031 32.234375 61.757812 32.21875 61.808594 32.199219 C 61.886719 32.171875 61.964844 32.144531 62.042969 32.117188 C 62.058594 32.113281 62.074219 32.109375 62.089844 32.101562 C 62.132812 32.085938 62.171875 32.074219 62.210938 32.058594 C 62.277344 32.035156 62.34375 32.011719 62.414062 31.984375 C 62.480469 31.960938 62.542969 31.933594 62.613281 31.910156 C 62.679688 31.882812 62.746094 31.855469 62.8125 31.832031 C 62.890625 31.800781 62.96875 31.769531 63.046875 31.734375 C 63.058594 31.730469 63.070312 31.726562 63.082031 31.722656 C 63.15625 31.691406 63.234375 31.660156 63.308594 31.625 C 63.386719 31.59375 63.46875 31.558594 63.546875 31.519531 C 63.550781 31.519531 63.554688 31.519531 63.554688 31.519531 C 63.636719 31.484375 63.714844 31.449219 63.796875 31.410156 C 63.867188 31.375 63.941406 31.339844 64.015625 31.308594 C 64.011719 31.304688 64.011719 31.296875 64.007812 31.292969 L 63.863281 30.890625 C 63.597656 30.101562 63.457031 29.261719 63.457031 28.386719 C 63.457031 28.109375 63.46875 27.835938 63.496094 27.570312 C 63.507812 27.480469 63.519531 27.386719 63.53125 27.296875 Z M 66.613281 28.507812 " fill-opacity="1" fill-rule="nonzero"/><g clip-path="url(#e90eac2e97)"><path fill="#5e17eb" d="M 57.253906 37.273438 C 48.394531 37.863281 27.671875 37.855469 16.304688 47.625 C 16.269531 47.246094 16.335938 43.835938 16.359375 39.632812 C 16.503906 39.539062 16.644531 39.445312 16.78125 39.355469 C 18.027344 38.546875 19.078125 37.894531 19.648438 37.609375 C 22.183594 36.175781 25.332031 34.796875 27.664062 35.089844 L 26.167969 34.621094 L 18.8125 36.582031 L 20.6875 35.257812 C 21.816406 34.457031 23.007812 33.75 24.242188 33.136719 C 25.480469 32.527344 26.765625 32.011719 28.089844 31.597656 C 29.945312 31.011719 31.863281 30.636719 33.804688 30.472656 L 34.933594 30.375 C 36.296875 30.261719 37.664062 30.25 39.027344 30.34375 L 42.785156 30.605469 L 46.867188 31.292969 L 51.8125 32.269531 L 55.644531 33.039062 C 59.65625 33.292969 61.945312 31.5625 63.789062 30.734375 C 64.441406 31.390625 63.789062 31.390625 64.320312 31.800781 C 64.332031 31.820312 60.519531 36.621094 57.253906 37.273438 Z M 57.253906 37.273438 " fill-opacity="1" fill-rule="nonzero"/></g><path fill="#5e17eb" d="M 64.316406 31.804688 C 64.332031 31.820312 60.519531 36.621094 57.253906 37.273438 " fill-opacity="1" fill-rule="nonzero"/><g fill="#000000" fill-opacity="1"><g transform="translate(10.52053, 67.874406)"><g><path d="M -7.859375 -4.0625 C -7.859375 -4.625 -7.753906 -5.101562 -7.546875 -5.5 C -7.347656 -5.90625 -7.0625 -6.207031 -6.6875 -6.40625 C -6.3125 -6.613281 -5.878906 -6.71875 -5.390625 -6.71875 C -4.898438 -6.71875 -4.46875 -6.613281 -4.09375 -6.40625 C -3.726562 -6.207031 -3.441406 -5.90625 -3.234375 -5.5 C -3.035156 -5.101562 -2.9375 -4.625 -2.9375 -4.0625 L -2.9375 -2.578125 L 0 -2.578125 L 0 -1.015625 L -7.859375 -1.015625 Z M -4.15625 -3.859375 C -4.15625 -4.722656 -4.566406 -5.15625 -5.390625 -5.15625 C -6.210938 -5.15625 -6.625 -4.722656 -6.625 -3.859375 L -6.625 -2.578125 L -4.15625 -2.578125 Z M -4.15625 -3.859375 "/></g></g></g><g fill="#000000" fill-opacity="1"><g transform="translate(10.52053, 60.693796)"><g><path d="M 0 -0.859375 L -5.9375 -0.859375 L -5.9375 -2.296875 L -5.046875 -2.296875 L -5.03125 -2.421875 C -5.363281 -2.554688 -5.601562 -2.738281 -5.75 -2.96875 C -5.90625 -3.207031 -5.984375 -3.492188 -5.984375 -3.828125 C -5.984375 -4.160156 -5.925781 -4.414062 -5.8125 -4.59375 L -4.53125 -4.34375 L -4.5 -4.234375 C -4.539062 -4.140625 -4.570312 -4.046875 -4.59375 -3.953125 C -4.613281 -3.859375 -4.625 -3.75 -4.625 -3.625 C -4.625 -3.207031 -4.476562 -2.890625 -4.1875 -2.671875 C -3.894531 -2.453125 -3.425781 -2.34375 -2.78125 -2.34375 L 0 -2.34375 Z M 0 -0.859375 "/></g></g></g><g fill="#000000" fill-opacity="1"><g transform="translate(10.52053, 56.044672)"><g><path d="M 0.109375 -3.453125 C 0.109375 -2.867188 -0.0078125 -2.359375 -0.25 -1.921875 C -0.488281 -1.484375 -0.835938 -1.140625 -1.296875 -0.890625 C -1.753906 -0.648438 -2.3125 -0.53125 -2.96875 -0.53125 C -3.613281 -0.53125 -4.164062 -0.648438 -4.625 -0.890625 C -5.09375 -1.140625 -5.445312 -1.484375 -5.6875 -1.921875 C -5.925781 -2.359375 -6.046875 -2.867188 -6.046875 -3.453125 C -6.046875 -4.023438 -5.925781 -4.53125 -5.6875 -4.96875 C -5.445312 -5.414062 -5.09375 -5.757812 -4.625 -6 C -4.164062 -6.25 -3.613281 -6.375 -2.96875 -6.375 C -2.3125 -6.375 -1.753906 -6.25 -1.296875 -6 C -0.835938 -5.757812 -0.488281 -5.414062 -0.25 -4.96875 C -0.0078125 -4.53125 0.109375 -4.023438 0.109375 -3.453125 Z M -1.15625 -3.453125 C -1.15625 -4.367188 -1.757812 -4.828125 -2.96875 -4.828125 C -3.59375 -4.828125 -4.050781 -4.707031 -4.34375 -4.46875 C -4.632812 -4.238281 -4.78125 -3.898438 -4.78125 -3.453125 C -4.78125 -2.523438 -4.175781 -2.0625 -2.96875 -2.0625 C -1.757812 -2.0625 -1.15625 -2.523438 -1.15625 -3.453125 Z M -1.15625 -3.453125 "/></g></g></g><g fill="#000000" fill-opacity="1"><g transform="translate(10.52053, 49.154297)"><g><path d="M 0.109375 -4.296875 C 0.109375 -3.578125 -0.0390625 -2.9375 -0.34375 -2.375 C -0.644531 -1.820312 -1.097656 -1.390625 -1.703125 -1.078125 C -2.304688 -0.773438 -3.050781 -0.625 -3.9375 -0.625 C -4.820312 -0.625 -5.566406 -0.773438 -6.171875 -1.078125 C -6.773438 -1.390625 -7.226562 -1.820312 -7.53125 -2.375 C -7.832031 -2.9375 -7.984375 -3.578125 -7.984375 -4.296875 C -7.984375 -5.054688 -7.832031 -5.695312 -7.53125 -6.21875 C -7.238281 -6.75 -6.789062 -7.128906 -6.1875 -7.359375 L -5.484375 -6.21875 L -5.484375 -6.09375 C -5.898438 -5.914062 -6.195312 -5.679688 -6.375 -5.390625 C -6.550781 -5.109375 -6.640625 -4.742188 -6.640625 -4.296875 C -6.640625 -3.640625 -6.421875 -3.128906 -5.984375 -2.765625 C -5.554688 -2.398438 -4.875 -2.21875 -3.9375 -2.21875 C -3 -2.21875 -2.3125 -2.398438 -1.875 -2.765625 C -1.445312 -3.128906 -1.234375 -3.640625 -1.234375 -4.296875 C -1.234375 -5.316406 -1.726562 -5.941406 -2.71875 -6.171875 L -2.71875 -6.3125 L -2.125 -7.453125 C -1.375 -7.234375 -0.8125 -6.863281 -0.4375 -6.34375 C -0.0703125 -5.832031 0.109375 -5.148438 0.109375 -4.296875 Z M 0.109375 -4.296875 "/></g></g></g><g fill="#000000" fill-opacity="1"><g transform="translate(10.52053, 41.446966)"><g><path d="M 0 -0.859375 L -5.9375 -0.859375 L -5.9375 -2.296875 L -5.046875 -2.296875 L -5.03125 -2.421875 C -5.363281 -2.554688 -5.601562 -2.738281 -5.75 -2.96875 C -5.90625 -3.207031 -5.984375 -3.492188 -5.984375 -3.828125 C -5.984375 -4.160156 -5.925781 -4.414062 -5.8125 -4.59375 L -4.53125 -4.34375 L -4.5 -4.234375 C -4.539062 -4.140625 -4.570312 -4.046875 -4.59375 -3.953125 C -4.613281 -3.859375 -4.625 -3.75 -4.625 -3.625 C -4.625 -3.207031 -4.476562 -2.890625 -4.1875 -2.671875 C -3.894531 -2.453125 -3.425781 -2.34375 -2.78125 -2.34375 L 0 -2.34375 Z M 0 -0.859375 "/></g></g></g><g fill="#000000" fill-opacity="1"><g transform="translate(10.52053, 36.797842)"><g><path d="M 0.109375 -2.71875 C 0.109375 -2.050781 -0.0703125 -1.554688 -0.4375 -1.234375 C -0.800781 -0.921875 -1.320312 -0.765625 -2 -0.765625 L -5.9375 -0.765625 L -5.9375 -2.25 L -2.1875 -2.25 C -1.820312 -2.25 -1.554688 -2.328125 -1.390625 -2.484375 C -1.222656 -2.640625 -1.140625 -2.882812 -1.140625 -3.21875 C -1.140625 -3.625 -1.273438 -3.941406 -1.546875 -4.171875 C -1.816406 -4.398438 -2.242188 -4.515625 -2.828125 -4.515625 L -5.9375 -4.515625 L -5.9375 -6.015625 L 0 -6.015625 L 0 -4.578125 L -0.875 -4.578125 L -0.890625 -4.46875 C -0.554688 -4.269531 -0.304688 -4.035156 -0.140625 -3.765625 C 0.0234375 -3.492188 0.109375 -3.144531 0.109375 -2.71875 Z M 0.109375 -2.71875 "/></g></g></g><g fill="#000000" fill-opacity="1"><g transform="translate(10.52053, 29.939715)"><g><path d="M 0 -0.859375 L -5.9375 -0.859375 L -5.9375 -2.28125 L -5.140625 -2.28125 L -5.109375 -2.40625 C -5.429688 -2.59375 -5.664062 -2.816406 -5.8125 -3.078125 C -5.96875 -3.335938 -6.046875 -3.671875 -6.046875 -4.078125 C -6.046875 -4.523438 -5.957031 -4.882812 -5.78125 -5.15625 C -5.601562 -5.425781 -5.34375 -5.625 -5 -5.75 L -5 -5.875 C -5.351562 -6.050781 -5.613281 -6.285156 -5.78125 -6.578125 C -5.957031 -6.867188 -6.046875 -7.226562 -6.046875 -7.65625 C -6.046875 -8.882812 -5.359375 -9.5 -3.984375 -9.5 L 0 -9.5 L 0 -8.015625 L -3.796875 -8.015625 C -4.148438 -8.015625 -4.398438 -7.941406 -4.546875 -7.796875 C -4.703125 -7.660156 -4.78125 -7.441406 -4.78125 -7.140625 C -4.78125 -6.328125 -4.234375 -5.921875 -3.140625 -5.921875 L 0 -5.921875 L 0 -4.4375 L -3.796875 -4.4375 C -4.148438 -4.4375 -4.398438 -4.363281 -4.546875 -4.21875 C -4.703125 -4.082031 -4.78125 -3.863281 -4.78125 -3.5625 C -4.78125 -3.175781 -4.648438 -2.875 -4.390625 -2.65625 C -4.140625 -2.445312 -3.734375 -2.34375 -3.171875 -2.34375 L 0 -2.34375 Z M 0 -0.859375 "/></g></g></g><g fill="#000000" fill-opacity="1"><g transform="translate(10.52053, 19.684773)"><g><path d="M 0.109375 -4.140625 C 0.109375 -3.390625 -0.171875 -2.828125 -0.734375 -2.453125 L -0.71875 -2.34375 L 0 -2.34375 L 0 -0.859375 L -8.3125 -0.859375 L -8.3125 -2.34375 L -5.234375 -2.34375 L -5.21875 -2.453125 C -5.5 -2.660156 -5.707031 -2.898438 -5.84375 -3.171875 C -5.976562 -3.453125 -6.046875 -3.785156 -6.046875 -4.171875 C -6.046875 -4.660156 -5.929688 -5.082031 -5.703125 -5.4375 C -5.484375 -5.789062 -5.140625 -6.066406 -4.671875 -6.265625 C -4.210938 -6.472656 -3.644531 -6.578125 -2.96875 -6.578125 C -2.289062 -6.578125 -1.71875 -6.472656 -1.25 -6.265625 C -0.789062 -6.054688 -0.445312 -5.769531 -0.21875 -5.40625 C 0 -5.039062 0.109375 -4.617188 0.109375 -4.140625 Z M -1.15625 -3.6875 C -1.15625 -4.125 -1.300781 -4.457031 -1.59375 -4.6875 C -1.882812 -4.925781 -2.34375 -5.046875 -2.96875 -5.046875 C -3.59375 -5.046875 -4.050781 -4.925781 -4.34375 -4.6875 C -4.632812 -4.457031 -4.78125 -4.125 -4.78125 -3.6875 C -4.78125 -3.269531 -4.628906 -2.9375 -4.328125 -2.6875 C -4.023438 -2.445312 -3.570312 -2.328125 -2.96875 -2.328125 C -2.351562 -2.328125 -1.894531 -2.445312 -1.59375 -2.6875 C -1.300781 -2.9375 -1.15625 -3.269531 -1.15625 -3.6875 Z M -1.15625 -3.6875 "/></g></g></g><g fill="#000000" fill-opacity="1"><g transform="translate(10.52053, 12.584782)"><g><path d="M 0.109375 -2.78125 C 0.109375 -2.375 0.0625 -2 -0.03125 -1.65625 C -0.125 -1.320312 -0.253906 -1.035156 -0.421875 -0.796875 C -0.585938 -0.554688 -0.78125 -0.378906 -1 -0.265625 L -1.890625 -1.09375 L -1.890625 -1.203125 C -1.617188 -1.398438 -1.414062 -1.632812 -1.28125 -1.90625 C -1.15625 -2.175781 -1.09375 -2.46875 -1.09375 -2.78125 C -1.09375 -3.070312 -1.144531 -3.289062 -1.25 -3.4375 C -1.351562 -3.582031 -1.5 -3.65625 -1.6875 -3.65625 C -1.84375 -3.65625 -1.972656 -3.601562 -2.078125 -3.5 C -2.179688 -3.394531 -2.257812 -3.222656 -2.3125 -2.984375 L -2.5 -2.203125 C -2.632812 -1.617188 -2.847656 -1.191406 -3.140625 -0.921875 C -3.429688 -0.648438 -3.800781 -0.515625 -4.25 -0.515625 C -4.613281 -0.515625 -4.929688 -0.609375 -5.203125 -0.796875 C -5.472656 -0.984375 -5.679688 -1.25 -5.828125 -1.59375 C -5.972656 -1.9375 -6.046875 -2.332031 -6.046875 -2.78125 C -6.046875 -3.320312 -5.96875 -3.765625 -5.8125 -4.109375 C -5.65625 -4.460938 -5.453125 -4.738281 -5.203125 -4.9375 L -4.328125 -4.140625 L -4.328125 -4.03125 C -4.515625 -3.863281 -4.648438 -3.675781 -4.734375 -3.46875 C -4.828125 -3.269531 -4.875 -3.039062 -4.875 -2.78125 C -4.875 -2.195312 -4.691406 -1.90625 -4.328125 -1.90625 C -4.171875 -1.90625 -4.039062 -1.957031 -3.9375 -2.0625 C -3.84375 -2.175781 -3.769531 -2.367188 -3.71875 -2.640625 L -3.546875 -3.375 C -3.421875 -3.976562 -3.210938 -4.414062 -2.921875 -4.6875 C -2.640625 -4.96875 -2.257812 -5.109375 -1.78125 -5.109375 C -1.40625 -5.109375 -1.070312 -5.015625 -0.78125 -4.828125 C -0.5 -4.648438 -0.28125 -4.382812 -0.125 -4.03125 C 0.03125 -3.675781 0.109375 -3.257812 0.109375 -2.78125 Z M 0.109375 -2.78125 "/></g></g></g></svg>