<svg xmlns="http://www.w3.org/2000/svg" xmlns:xlink="http://www.w3.org/1999/xlink" width="150" zoomAndPan="magnify" viewBox="0 0 112.5 112.499997" height="150" preserveAspectRatio="xMidYMid meet" version="1.0"><defs><g/><clipPath id="0761484985"><path d="M 25.050781 5.265625 L 110 5.265625 L 110 106.8125 L 25.050781 106.8125 Z M 25.050781 5.265625 " clip-rule="nonzero"/></clipPath><clipPath id="43d686546b"><path d="M 25.050781 44 L 105 44 L 105 73 L 25.050781 73 Z M 25.050781 44 " clip-rule="nonzero"/></clipPath></defs><g clip-path="url(#0761484985)"><path fill="#000000" d="M 39.65625 29.914062 C 39.242188 30.035156 38.820312 30.140625 38.390625 30.226562 C 38.820312 30.144531 39.242188 30.039062 39.65625 29.914062 Z M 72.84375 5.300781 C 56.933594 5.300781 41.019531 5.445312 25.109375 5.445312 L 25.109375 26.457031 C 25.226562 26.597656 25.347656 26.738281 25.46875 26.871094 C 25.472656 26.875 25.476562 26.878906 25.480469 26.878906 C 27.816406 29.449219 31.378906 31.191406 36.808594 30.21875 C 37.183594 30.152344 37.5625 30.074219 37.957031 29.980469 C 39.078125 29.714844 40.277344 29.339844 41.554688 28.835938 C 41.554688 28.832031 41.554688 28.832031 41.558594 28.832031 C 42.160156 28.597656 42.777344 28.332031 43.414062 28.039062 C 43.414062 28.039062 36.976562 11.269531 37.273438 10.832031 L 38.539062 8.964844 L 41.273438 11.703125 C 42.328125 12.753906 43.511719 13.667969 44.800781 14.421875 L 49.445312 17.144531 L 54.519531 17.894531 L 60.636719 18.886719 L 65.519531 19.683594 L 74.453125 21.84375 L 80.1875 24.289062 L 83.949219 26.542969 L 87.242188 30.496094 L 88.09375 32.0625 L 89.027344 33.785156 L 102.785156 39.148438 L 103.5 39.429688 L 107.832031 41.117188 L 105.371094 44.726562 C 105.371094 44.726562 90.175781 55.691406 88.8125 55.691406 L 74.921875 55.691406 L 69.660156 56.164062 L 61.042969 57.105469 C 60.457031 57.167969 59.875 57.273438 59.300781 57.421875 L 53.578125 58.894531 L 43.046875 62.089844 L 36.28125 65.191406 L 33.960938 65.21875 L 34.398438 64.910156 L 34.886719 64.636719 C 32.40625 65.921875 30.351562 67.359375 28.65625 68.855469 C 27.242188 70.101562 26.074219 71.394531 25.109375 72.679688 L 25.109375 106.699219 L 44.203125 106.699219 L 44.203125 76.898438 L 72.839844 76.898438 C 122.453125 76.898438 122.3125 5.300781 72.84375 5.300781 Z M 37.078125 30.429688 L 36.835938 30.632812 L 37.078125 30.429688 C 37.523438 30.382812 37.957031 30.316406 38.390625 30.226562 C 37.957031 30.316406 37.523438 30.382812 37.078125 30.429688 Z M 40.875 29.492188 C 40.609375 29.597656 40.339844 29.695312 40.070312 29.785156 C 40.339844 29.695312 40.609375 29.597656 40.875 29.492188 Z M 40.875 29.492188 " fill-opacity="1" fill-rule="nonzero"/></g><path fill="#5e17eb" d="M 103.320312 40.894531 C 103.320312 40.441406 103.34375 39.988281 103.390625 39.542969 C 103.40625 39.390625 103.421875 39.242188 103.445312 39.089844 L 89.492188 33.648438 C 89.492188 33.648438 88.789062 20.070312 49.34375 16.769531 C 42.910156 14.195312 38.28125 8.472656 38.28125 8.472656 C 38.28125 8.472656 28.894531 19.394531 43.300781 27.890625 C 43.277344 27.953125 40.648438 29.226562 36.914062 30.132812 L 36.695312 30.332031 L 36.554688 30.453125 L 33.035156 33.457031 L 44.957031 32.980469 C 43.597656 33.550781 42.292969 34.226562 41.050781 35.011719 C 39.8125 35.792969 38.632812 36.679688 37.535156 37.65625 L 37.324219 37.84375 C 37.324219 37.84375 63.699219 29.453125 87.71875 42.632812 C 88.519531 42.808594 90.8125 43.722656 90.8125 43.722656 C 91.964844 44.128906 93.140625 44.453125 94.335938 44.703125 C 95.261719 44.894531 96.195312 45.042969 97.136719 45.140625 C 98.074219 45.234375 99.019531 45.28125 99.964844 45.28125 L 102.554688 45.28125 L 103.992188 45.050781 C 103.554688 43.742188 103.320312 42.347656 103.320312 40.894531 Z M 103.320312 40.894531 " fill-opacity="1" fill-rule="nonzero"/><path fill="#00bf63" d="M 108.5625 41.085938 L 105.511719 45.566406 L 104.664062 46.679688 L 97.214844 53.863281 C 97.007812 53.976562 96.796875 54.082031 96.585938 54.183594 C 95.554688 54.683594 94.476562 55.078125 93.367188 55.355469 C 92.035156 55.691406 90.65625 55.867188 89.273438 55.867188 L 75.183594 55.867188 L 69.847656 56.34375 L 61.109375 57.296875 C 60.511719 57.363281 59.925781 57.46875 59.34375 57.617188 L 53.539062 59.109375 L 42.859375 62.351562 L 35.992188 65.5 L 34.085938 65.210938 L 34.582031 64.933594 C 34.582031 64.933594 34.585938 64.933594 34.585938 64.929688 L 36.265625 63.992188 C 39.257812 62.328125 42.371094 60.886719 45.578125 59.683594 L 49.914062 58.058594 L 59.5625 55.421875 C 59.867188 55.335938 60.179688 55.265625 60.496094 55.214844 L 68.339844 53.878906 C 68.769531 53.808594 69.207031 53.761719 69.644531 53.746094 L 85.769531 53.195312 L 94.964844 53.195312 C 93.164062 51.957031 91.605469 50.398438 90.363281 48.601562 L 91.261719 48.78125 C 91.636719 48.855469 92.023438 48.894531 92.402344 48.894531 C 92.59375 48.894531 92.78125 48.886719 92.972656 48.867188 C 93.09375 48.855469 93.21875 48.839844 93.339844 48.828125 C 93.464844 48.8125 93.59375 48.800781 93.71875 48.785156 C 93.808594 48.773438 93.898438 48.761719 93.988281 48.75 C 94.121094 48.730469 94.253906 48.714844 94.382812 48.695312 C 94.460938 48.683594 94.535156 48.675781 94.613281 48.660156 C 94.671875 48.652344 94.734375 48.644531 94.796875 48.632812 C 94.882812 48.621094 94.964844 48.609375 95.050781 48.59375 C 95.0625 48.59375 95.074219 48.589844 95.085938 48.589844 C 95.152344 48.578125 95.214844 48.566406 95.28125 48.554688 C 95.292969 48.550781 95.308594 48.550781 95.320312 48.546875 C 95.386719 48.539062 95.453125 48.523438 95.523438 48.511719 C 95.605469 48.496094 95.6875 48.484375 95.769531 48.46875 C 95.835938 48.453125 95.90625 48.441406 95.972656 48.429688 C 96.0625 48.414062 96.148438 48.394531 96.238281 48.378906 C 96.246094 48.375 96.253906 48.375 96.261719 48.371094 C 96.375 48.347656 96.484375 48.328125 96.597656 48.304688 C 96.605469 48.304688 96.617188 48.300781 96.625 48.296875 C 96.742188 48.273438 96.855469 48.25 96.96875 48.226562 C 97.070312 48.203125 97.167969 48.179688 97.269531 48.15625 C 97.316406 48.148438 97.363281 48.136719 97.40625 48.125 C 97.492188 48.105469 97.578125 48.085938 97.660156 48.0625 C 97.675781 48.058594 97.6875 48.058594 97.699219 48.054688 C 97.8125 48.027344 97.925781 48 98.039062 47.972656 C 98.15625 47.941406 98.273438 47.914062 98.390625 47.878906 C 98.394531 47.878906 98.398438 47.878906 98.398438 47.878906 C 98.515625 47.847656 98.632812 47.816406 98.75 47.785156 C 98.867188 47.75 98.984375 47.71875 99.101562 47.683594 C 99.183594 47.660156 99.265625 47.636719 99.347656 47.609375 C 99.359375 47.609375 99.367188 47.605469 99.375 47.601562 C 99.460938 47.578125 99.539062 47.554688 99.621094 47.527344 C 99.863281 47.453125 100.101562 47.375 100.34375 47.296875 C 100.425781 47.269531 100.507812 47.242188 100.589844 47.214844 C 100.722656 47.167969 100.851562 47.125 100.984375 47.078125 C 101.007812 47.070312 101.03125 47.0625 101.058594 47.050781 C 101.128906 47.027344 101.195312 47.003906 101.261719 46.980469 C 101.371094 46.9375 101.480469 46.898438 101.59375 46.855469 C 101.703125 46.816406 101.8125 46.773438 101.925781 46.730469 C 102.035156 46.6875 102.148438 46.644531 102.257812 46.601562 C 102.386719 46.550781 102.515625 46.496094 102.644531 46.445312 C 102.667969 46.4375 102.6875 46.429688 102.707031 46.417969 C 102.828125 46.367188 102.953125 46.316406 103.078125 46.261719 C 103.210938 46.207031 103.34375 46.148438 103.476562 46.085938 C 103.484375 46.085938 103.488281 46.085938 103.488281 46.082031 C 103.625 46.023438 103.757812 45.964844 103.890625 45.902344 C 104.011719 45.847656 104.132812 45.789062 104.25 45.734375 C 104.25 45.726562 104.246094 45.71875 104.242188 45.710938 L 103.996094 45.039062 C 103.5625 43.730469 103.324219 42.335938 103.324219 40.886719 C 103.324219 40.429688 103.347656 39.976562 103.394531 39.535156 C 103.410156 39.382812 103.425781 39.230469 103.449219 39.078125 Z M 108.5625 41.085938 " fill-opacity="1" fill-rule="nonzero"/><g clip-path="url(#43d686546b)"><path fill="#5e17eb" d="M 93.035156 55.628906 C 78.339844 56.605469 43.964844 56.59375 25.109375 72.796875 C 25.054688 72.167969 25.167969 66.515625 25.203125 59.542969 C 25.441406 59.386719 25.675781 59.234375 25.902344 59.085938 C 27.964844 57.742188 29.714844 56.65625 30.660156 56.183594 C 34.863281 53.8125 40.082031 51.523438 43.953125 52.003906 L 41.476562 51.230469 L 29.269531 54.484375 L 32.382812 52.285156 C 34.257812 50.960938 36.230469 49.785156 38.28125 48.769531 C 40.335938 47.753906 42.464844 46.898438 44.65625 46.210938 C 47.742188 45.246094 50.921875 44.621094 54.140625 44.347656 L 56.011719 44.1875 C 58.273438 43.996094 60.542969 43.980469 62.808594 44.136719 L 69.039062 44.566406 L 75.8125 45.710938 L 84.011719 47.332031 L 90.371094 48.601562 C 97.023438 49.03125 100.820312 46.15625 103.878906 44.785156 C 104.964844 45.867188 103.878906 45.867188 104.757812 46.554688 C 104.78125 46.582031 98.457031 54.542969 93.035156 55.628906 Z M 93.035156 55.628906 " fill-opacity="1" fill-rule="nonzero"/></g><path fill="#5e17eb" d="M 104.75 46.554688 C 104.78125 46.582031 98.457031 54.542969 93.035156 55.628906 " fill-opacity="1" fill-rule="nonzero"/><g fill="#000000" fill-opacity="1"><g transform="translate(15.521914, 106.384441)"><g><path d="M -13.046875 -6.734375 C -13.046875 -7.671875 -12.875 -8.46875 -12.53125 -9.125 C -12.1875 -9.789062 -11.707031 -10.289062 -11.09375 -10.625 C -10.476562 -10.96875 -9.765625 -11.140625 -8.953125 -11.140625 C -8.128906 -11.140625 -7.410156 -10.96875 -6.796875 -10.625 C -6.191406 -10.289062 -5.71875 -9.789062 -5.375 -9.125 C -5.03125 -8.46875 -4.859375 -7.671875 -4.859375 -6.734375 L -4.859375 -4.265625 L 0 -4.265625 L 0 -1.6875 L -13.046875 -1.6875 Z M -6.90625 -6.390625 C -6.90625 -7.828125 -7.585938 -8.546875 -8.953125 -8.546875 C -10.316406 -8.546875 -11 -7.828125 -11 -6.390625 L -11 -4.265625 L -6.90625 -4.265625 Z M -6.90625 -6.390625 "/></g></g></g><g fill="#000000" fill-opacity="1"><g transform="translate(15.521914, 94.474709)"><g><path d="M 0 -1.421875 L -9.84375 -1.421875 L -9.84375 -3.8125 L -8.375 -3.8125 L -8.34375 -4 C -8.882812 -4.238281 -9.28125 -4.550781 -9.53125 -4.9375 C -9.789062 -5.320312 -9.921875 -5.789062 -9.921875 -6.34375 C -9.921875 -6.90625 -9.828125 -7.332031 -9.640625 -7.625 L -7.515625 -7.203125 L -7.46875 -7.015625 C -7.539062 -6.859375 -7.585938 -6.703125 -7.609375 -6.546875 C -7.640625 -6.398438 -7.65625 -6.222656 -7.65625 -6.015625 C -7.65625 -5.328125 -7.410156 -4.800781 -6.921875 -4.4375 C -6.441406 -4.070312 -5.671875 -3.890625 -4.609375 -3.890625 L 0 -3.890625 Z M 0 -1.421875 "/></g></g></g><g fill="#000000" fill-opacity="1"><g transform="translate(15.521914, 86.763689)"><g><path d="M 0.1875 -5.71875 C 0.1875 -4.75 -0.0078125 -3.898438 -0.40625 -3.171875 C -0.800781 -2.453125 -1.378906 -1.890625 -2.140625 -1.484375 C -2.910156 -1.085938 -3.835938 -0.890625 -4.921875 -0.890625 C -5.992188 -0.890625 -6.914062 -1.085938 -7.6875 -1.484375 C -8.457031 -1.890625 -9.039062 -2.453125 -9.4375 -3.171875 C -9.832031 -3.898438 -10.03125 -4.75 -10.03125 -5.71875 C -10.03125 -6.675781 -9.832031 -7.519531 -9.4375 -8.25 C -9.039062 -8.976562 -8.457031 -9.546875 -7.6875 -9.953125 C -6.914062 -10.359375 -5.992188 -10.5625 -4.921875 -10.5625 C -3.835938 -10.5625 -2.910156 -10.359375 -2.140625 -9.953125 C -1.378906 -9.546875 -0.800781 -8.976562 -0.40625 -8.25 C -0.0078125 -7.519531 0.1875 -6.675781 0.1875 -5.71875 Z M -1.90625 -5.71875 C -1.90625 -7.25 -2.910156 -8.015625 -4.921875 -8.015625 C -5.953125 -8.015625 -6.707031 -7.816406 -7.1875 -7.421875 C -7.675781 -7.023438 -7.921875 -6.457031 -7.921875 -5.71875 C -7.921875 -4.1875 -6.921875 -3.421875 -4.921875 -3.421875 C -2.910156 -3.421875 -1.90625 -4.1875 -1.90625 -5.71875 Z M -1.90625 -5.71875 "/></g></g></g><g fill="#000000" fill-opacity="1"><g transform="translate(15.521914, 75.335339)"><g><path d="M 0.1875 -7.125 C 0.1875 -5.925781 -0.0625 -4.867188 -0.5625 -3.953125 C -1.0625 -3.035156 -1.8125 -2.316406 -2.8125 -1.796875 C -3.8125 -1.285156 -5.046875 -1.03125 -6.515625 -1.03125 C -7.984375 -1.03125 -9.21875 -1.285156 -10.21875 -1.796875 C -11.226562 -2.316406 -11.976562 -3.035156 -12.46875 -3.953125 C -12.96875 -4.867188 -13.21875 -5.925781 -13.21875 -7.125 C -13.21875 -8.382812 -12.972656 -9.453125 -12.484375 -10.328125 C -11.992188 -11.203125 -11.25 -11.828125 -10.25 -12.203125 L -9.09375 -10.3125 L -9.109375 -10.09375 C -9.785156 -9.8125 -10.269531 -9.429688 -10.5625 -8.953125 C -10.851562 -8.472656 -11 -7.863281 -11 -7.125 C -11 -6.039062 -10.640625 -5.195312 -9.921875 -4.59375 C -9.210938 -3.988281 -8.078125 -3.6875 -6.515625 -3.6875 C -4.960938 -3.6875 -3.828125 -3.988281 -3.109375 -4.59375 C -2.398438 -5.195312 -2.046875 -6.039062 -2.046875 -7.125 C -2.046875 -8.820312 -2.867188 -9.859375 -4.515625 -10.234375 L -4.515625 -10.46875 L -3.515625 -12.359375 C -2.285156 -12.003906 -1.359375 -11.394531 -0.734375 -10.53125 C -0.117188 -9.664062 0.1875 -8.53125 0.1875 -7.125 Z M 0.1875 -7.125 "/></g></g></g><g fill="#000000" fill-opacity="1"><g transform="translate(15.521914, 62.55199)"><g><path d="M 0 -1.421875 L -9.84375 -1.421875 L -9.84375 -3.8125 L -8.375 -3.8125 L -8.34375 -4 C -8.882812 -4.238281 -9.28125 -4.550781 -9.53125 -4.9375 C -9.789062 -5.320312 -9.921875 -5.789062 -9.921875 -6.34375 C -9.921875 -6.90625 -9.828125 -7.332031 -9.640625 -7.625 L -7.515625 -7.203125 L -7.46875 -7.015625 C -7.539062 -6.859375 -7.585938 -6.703125 -7.609375 -6.546875 C -7.640625 -6.398438 -7.65625 -6.222656 -7.65625 -6.015625 C -7.65625 -5.328125 -7.410156 -4.800781 -6.921875 -4.4375 C -6.441406 -4.070312 -5.671875 -3.890625 -4.609375 -3.890625 L 0 -3.890625 Z M 0 -1.421875 "/></g></g></g><g fill="#000000" fill-opacity="1"><g transform="translate(15.521914, 54.840969)"><g><path d="M 0.1875 -4.5 C 0.1875 -3.394531 -0.113281 -2.578125 -0.71875 -2.046875 C -1.320312 -1.523438 -2.1875 -1.265625 -3.3125 -1.265625 L -9.84375 -1.265625 L -9.84375 -3.734375 L -3.625 -3.734375 C -3.03125 -3.734375 -2.59375 -3.863281 -2.3125 -4.125 C -2.039062 -4.382812 -1.90625 -4.785156 -1.90625 -5.328125 C -1.90625 -6.003906 -2.128906 -6.53125 -2.578125 -6.90625 C -3.023438 -7.289062 -3.726562 -7.484375 -4.6875 -7.484375 L -9.84375 -7.484375 L -9.84375 -9.96875 L 0 -9.96875 L 0 -7.59375 L -1.4375 -7.59375 L -1.484375 -7.40625 C -0.921875 -7.09375 -0.5 -6.707031 -0.21875 -6.25 C 0.0507812 -5.789062 0.1875 -5.207031 0.1875 -4.5 Z M 0.1875 -4.5 "/></g></g></g><g fill="#000000" fill-opacity="1"><g transform="translate(15.521914, 43.466106)"><g><path d="M 0 -1.421875 L -9.84375 -1.421875 L -9.84375 -3.796875 L -8.515625 -3.796875 L -8.484375 -3.984375 C -9.015625 -4.296875 -9.40625 -4.664062 -9.65625 -5.09375 C -9.90625 -5.53125 -10.03125 -6.085938 -10.03125 -6.765625 C -10.03125 -7.503906 -9.878906 -8.097656 -9.578125 -8.546875 C -9.285156 -9.003906 -8.859375 -9.335938 -8.296875 -9.546875 L -8.296875 -9.734375 C -8.878906 -10.035156 -9.3125 -10.425781 -9.59375 -10.90625 C -9.882812 -11.382812 -10.03125 -11.976562 -10.03125 -12.6875 C -10.03125 -14.726562 -8.894531 -15.75 -6.625 -15.75 L 0 -15.75 L 0 -13.28125 L -6.3125 -13.28125 C -6.882812 -13.28125 -7.296875 -13.164062 -7.546875 -12.9375 C -7.804688 -12.71875 -7.9375 -12.359375 -7.9375 -11.859375 C -7.9375 -10.492188 -7.03125 -9.8125 -5.21875 -9.8125 L 0 -9.8125 L 0 -7.34375 L -6.3125 -7.34375 C -6.882812 -7.34375 -7.296875 -7.226562 -7.546875 -7 C -7.804688 -6.769531 -7.9375 -6.40625 -7.9375 -5.90625 C -7.9375 -5.269531 -7.722656 -4.773438 -7.296875 -4.421875 C -6.867188 -4.066406 -6.191406 -3.890625 -5.265625 -3.890625 L 0 -3.890625 Z M 0 -1.421875 "/></g></g></g><g fill="#000000" fill-opacity="1"><g transform="translate(15.521914, 26.457298)"><g><path d="M 0.1875 -6.875 C 0.1875 -5.625 -0.28125 -4.691406 -1.21875 -4.078125 L -1.1875 -3.890625 L 0 -3.890625 L 0 -1.421875 L -13.78125 -1.421875 L -13.78125 -3.890625 L -8.671875 -3.890625 L -8.640625 -4.078125 C -9.109375 -4.410156 -9.457031 -4.804688 -9.6875 -5.265625 C -9.914062 -5.734375 -10.03125 -6.289062 -10.03125 -6.9375 C -10.03125 -7.726562 -9.84375 -8.421875 -9.46875 -9.015625 C -9.09375 -9.609375 -8.519531 -10.070312 -7.75 -10.40625 C -6.988281 -10.738281 -6.046875 -10.90625 -4.921875 -10.90625 C -3.796875 -10.90625 -2.851562 -10.734375 -2.09375 -10.390625 C -1.332031 -10.046875 -0.757812 -9.566406 -0.375 -8.953125 C 0 -8.347656 0.1875 -7.65625 0.1875 -6.875 Z M -1.90625 -6.125 C -1.90625 -6.851562 -2.144531 -7.40625 -2.625 -7.78125 C -3.113281 -8.164062 -3.878906 -8.359375 -4.921875 -8.359375 C -5.953125 -8.359375 -6.707031 -8.164062 -7.1875 -7.78125 C -7.675781 -7.40625 -7.921875 -6.851562 -7.921875 -6.125 C -7.921875 -5.425781 -7.671875 -4.875 -7.171875 -4.46875 C -6.679688 -4.0625 -5.929688 -3.859375 -4.921875 -3.859375 C -3.898438 -3.859375 -3.140625 -4.0625 -2.640625 -4.46875 C -2.148438 -4.875 -1.90625 -5.425781 -1.90625 -6.125 Z M -1.90625 -6.125 "/></g></g></g><g fill="#000000" fill-opacity="1"><g transform="translate(15.521914, 14.68128)"><g><path d="M 0.1875 -4.609375 C 0.1875 -3.929688 0.109375 -3.3125 -0.046875 -2.75 C -0.203125 -2.195312 -0.414062 -1.722656 -0.6875 -1.328125 C -0.96875 -0.929688 -1.289062 -0.640625 -1.65625 -0.453125 L -3.125 -1.8125 L -3.125 -2 C -2.6875 -2.332031 -2.359375 -2.71875 -2.140625 -3.15625 C -1.921875 -3.601562 -1.8125 -4.09375 -1.8125 -4.625 C -1.8125 -5.101562 -1.894531 -5.460938 -2.0625 -5.703125 C -2.238281 -5.953125 -2.488281 -6.078125 -2.8125 -6.078125 C -3.0625 -6.078125 -3.269531 -5.988281 -3.4375 -5.8125 C -3.601562 -5.632812 -3.734375 -5.347656 -3.828125 -4.953125 L -4.140625 -3.65625 C -4.378906 -2.675781 -4.738281 -1.960938 -5.21875 -1.515625 C -5.695312 -1.066406 -6.300781 -0.84375 -7.03125 -0.84375 C -7.644531 -0.84375 -8.175781 -1 -8.625 -1.3125 C -9.082031 -1.625 -9.429688 -2.0625 -9.671875 -2.625 C -9.910156 -3.195312 -10.03125 -3.863281 -10.03125 -4.625 C -10.03125 -5.507812 -9.898438 -6.242188 -9.640625 -6.828125 C -9.378906 -7.410156 -9.035156 -7.863281 -8.609375 -8.1875 L -7.1875 -6.875 L -7.1875 -6.6875 C -7.5 -6.414062 -7.722656 -6.109375 -7.859375 -5.765625 C -8.003906 -5.421875 -8.078125 -5.039062 -8.078125 -4.625 C -8.078125 -3.644531 -7.773438 -3.15625 -7.171875 -3.15625 C -6.910156 -3.15625 -6.703125 -3.242188 -6.546875 -3.421875 C -6.390625 -3.609375 -6.257812 -3.929688 -6.15625 -4.390625 L -5.890625 -5.59375 C -5.671875 -6.59375 -5.320312 -7.320312 -4.84375 -7.78125 C -4.375 -8.25 -3.742188 -8.484375 -2.953125 -8.484375 C -2.328125 -8.484375 -1.773438 -8.328125 -1.296875 -8.015625 C -0.828125 -7.703125 -0.460938 -7.253906 -0.203125 -6.671875 C 0.0546875 -6.097656 0.1875 -5.410156 0.1875 -4.609375 Z M 0.1875 -4.609375 "/></g></g></g></svg>