<?xml version="1.0" encoding="UTF-8" standalone="no" ?>
<!DOCTYPE svg PUBLIC "-//W3C//DTD SVG 1.1//EN" "http://www.w3.org/Graphics/SVG/1.1/DTD/svg11.dtd">
<svg xmlns="http://www.w3.org/2000/svg" xmlns:xlink="http://www.w3.org/1999/xlink" version="1.1" width="350" height="140" viewBox="0 0 350 140" xml:space="preserve">
<desc>Created with Fabric.js 5.2.4</desc>
<defs>
</defs>
<rect x="0" y="0" width="100%" height="100%" fill="transparent"></rect>
<g transform="matrix(1 0 0 1 175 70)" id="10cc7440-0003-456c-8cf9-c1c9ce74040b"  >
<rect style="stroke: none; stroke-width: 1; stroke-dasharray: none; stroke-linecap: butt; stroke-dashoffset: 0; stroke-linejoin: miter; stroke-miterlimit: 4; fill: rgb(255,255,255); fill-rule: nonzero; opacity: 1; visibility: hidden;" vector-effect="non-scaling-stroke"  x="-175" y="-70" rx="0" ry="0" width="350" height="140" />
</g>
<g transform="matrix(Infinity NaN NaN Infinity 0 0)" id="49a8fb33-13bf-4e0b-b3c1-fec7938bc48f"  >
</g>
<g transform="matrix(0.22 0 0 0.22 175 70)"  >
<g style="" vector-effect="non-scaling-stroke"   >
		<g transform="matrix(2.78 0 0 2.78 -164 -33.34)" id="text-0"  >
<path style="stroke: none; stroke-width: 1; stroke-dasharray: none; stroke-linecap: butt; stroke-dashoffset: 0; stroke-linejoin: miter; stroke-miterlimit: 4; fill: rgb(0,116,217); fill-rule: nonzero; opacity: 1;" vector-effect="non-scaling-stroke"  transform=" translate(-210.5, 10.25)" d="M 17.4 -27.7 L 17.4 -27.7 L 17.6 -29.25 Q 17.6 -31.55 15.8 -32.2 L 15.8 -32.2 Q 14.4 -32.65 13.65 -32.65 L 13.65 -32.65 L 13.6 -32.65 Q 12.1 -32.65 11 -32.18 Q 9.9 -31.7 9.4 -31 L 9.4 -31 Q 8.35 -29.55 8.2 -27.95 L 8.2 -27.95 Q 8.2 -26.05 9.9 -24.68 Q 11.6 -23.3 14.03 -22.28 Q 16.45 -21.25 18.88 -20.05 Q 21.3 -18.85 23 -16.6 Q 24.7 -14.35 24.7 -11.2 L 24.7 -11.2 Q 24.7 -5.05 20.83 -2 Q 16.95 1.05 12.03 1.05 Q 7.1 1.05 3.88 -1.18 Q 0.65 -3.4 0.65 -7.15 L 0.65 -7.15 L 0.65 -7.2 Q 0.65 -9.05 1.23 -10.43 Q 1.8 -11.8 2.6 -12.45 L 2.6 -12.45 Q 4.25 -13.8 5.6 -13.9 L 5.6 -13.9 L 6.2 -13.95 Q 7.6 -13.95 8.75 -13.28 Q 9.9 -12.6 9.9 -11.4 L 9.9 -11.4 Q 9.9 -10.8 9.25 -10.4 Q 8.6 -10 8.13 -9.2 Q 7.65 -8.4 7.6 -7.85 L 7.6 -7.85 L 7.5 -7.3 Q 7.5 -4.25 10.3 -3.25 L 10.3 -3.25 Q 11.3 -2.9 11.9 -2.9 L 11.9 -2.9 Q 14.65 -2.9 16.32 -4.55 Q 18 -6.2 18 -8.75 L 18 -8.75 Q 18 -11.8 15.4 -13.7 L 15.4 -13.7 Q 13.45 -15.1 11.18 -16.05 Q 8.9 -17 8.1 -17.4 Q 7.3 -17.8 6.4 -18.35 Q 5.5 -18.9 4.4 -19.9 L 4.4 -19.9 Q 2 -22 2 -25.58 Q 2 -29.15 3.95 -31.6 L 3.95 -31.6 Q 7.45 -36.05 14.45 -36.05 L 14.45 -36.05 Q 18.15 -36.05 20.7 -34.63 Q 23.25 -33.2 23.25 -30.7 L 23.25 -30.7 Q 23.25 -28.9 22.23 -27.7 Q 21.2 -26.5 19.6 -26.5 L 19.6 -26.5 Q 18.85 -26.5 18.13 -26.8 Q 17.4 -27.1 17.4 -27.7 Z M 43.35 -5.75 L 43.35 -5.75 Q 43.35 -2.9 41.07 -1.03 Q 38.8 0.85 35.65 0.85 L 35.65 0.85 Q 31.05 0.85 28.9 -1.93 Q 26.75 -4.7 26.75 -9.45 L 26.75 -9.45 Q 26.75 -14.5 29 -18.4 L 29 -18.4 Q 30.1 -20.4 32.15 -21.55 Q 34.2 -22.7 36.95 -22.7 L 36.95 -22.7 Q 41.1 -22.7 42.8 -19.9 L 42.8 -19.9 Q 43.5 -18.75 43.5 -17.2 L 43.5 -17.2 Q 43.5 -14.8 41.5 -13.6 L 41.5 -13.6 Q 40.7 -13.15 40.02 -13.15 Q 39.35 -13.15 38.92 -13.23 Q 38.5 -13.3 37.8 -13.9 Q 37.1 -14.5 37.1 -15.55 L 37.1 -15.55 Q 37.15 -16.1 37.95 -16.45 L 37.95 -16.45 Q 38.7 -16.9 38.7 -18.05 L 38.7 -18.05 Q 38.7 -20 36.3 -20 L 36.3 -20 Q 35.7 -20 34.87 -19.48 Q 34.05 -18.95 33.5 -18.13 Q 32.95 -17.3 32.47 -15.53 Q 32 -13.75 32 -12.13 Q 32 -10.5 32.12 -9.68 Q 32.25 -8.85 32.67 -7.43 Q 33.1 -6 34.27 -5.1 Q 35.45 -4.2 37.2 -4.2 L 37.2 -4.2 Q 39.3 -4.2 40.9 -5.95 L 40.9 -5.95 Q 41.55 -6.65 41.95 -7.65 L 41.95 -7.65 Q 42.15 -8.05 42.45 -8.05 L 42.45 -8.05 Q 42.9 -8.05 43.12 -7.23 Q 43.35 -6.4 43.35 -5.75 Z M 51.95 -26.85 L 51.95 -26.85 L 51.9 -22 Q 51.9 -21.7 52.1 -21.7 Q 52.3 -21.7 52.5 -21.85 L 52.5 -21.85 Q 53.75 -22.7 56.45 -22.7 L 56.45 -22.7 Q 61 -22.7 62.75 -19.6 L 62.75 -19.6 Q 63.4 -18.45 63.4 -16.55 Q 63.4 -14.65 63.17 -11.3 Q 62.95 -7.95 62.95 -6.55 L 62.95 -6.55 Q 62.95 -1.65 64.34 -0.05 L 64.34 -0.05 Q 64.59 0.2 64.59 0.45 L 64.59 0.45 Q 64.59 0.95 62.45 0.95 L 62.45 0.95 Q 56.65 0.95 56.65 -4.45 L 56.65 -4.45 Q 56.65 -6.55 57.65 -10.35 Q 58.65 -14.15 58.65 -15.95 Q 58.65 -17.75 57.8 -18.73 Q 56.95 -19.7 55.45 -19.7 Q 53.95 -19.7 53.07 -19.05 Q 52.2 -18.4 52 -17.7 L 52 -17.7 L 51.85 -17.05 Q 51.8 -16.1 51.8 -11 Q 51.8 -5.9 52.05 -4.38 Q 52.3 -2.85 52.3 -2.65 L 52.3 -2.65 Q 52.3 -1.2 50.35 -0.08 Q 48.4 1.05 46.5 1.05 L 46.5 1.05 Q 45.8 1.05 45.8 0.25 L 45.8 0.25 L 45.9 -0.7 Q 47 -9.1 47 -18.9 L 47 -18.9 Q 47 -22.7 46.7 -26.6 L 46.7 -26.6 L 46.65 -27.7 Q 46.55 -29.1 46.07 -30.1 Q 45.6 -31.1 45.2 -31.4 L 45.2 -31.4 L 44.75 -31.65 Q 44.4 -31.85 44.4 -32.1 L 44.4 -32.1 Q 44.4 -32.8 46.75 -33.83 Q 49.1 -34.85 50.37 -34.85 Q 51.65 -34.85 51.75 -34.3 L 51.75 -34.3 Q 51.95 -31.75 51.95 -26.85 Z M 70.99 -18.85 L 70.99 -18.85 Q 69.69 -18.8 69.12 -18.78 Q 68.54 -18.75 68.54 -19.05 Q 68.54 -19.35 68.84 -19.65 L 68.84 -19.65 Q 72.04 -22.6 79.64 -22.6 L 79.64 -22.6 Q 82.24 -22.6 83.74 -22.15 L 83.74 -22.15 L 84.24 -22 Q 84.84 -21.75 84.84 -21.45 L 84.84 -21.45 Q 84.84 -21.2 84.49 -21.05 L 84.49 -21.05 Q 83.14 -20.65 81.89 -19.78 Q 80.64 -18.9 80.64 -18.55 L 80.64 -18.55 L 80.94 -18.2 Q 82.54 -17.3 83.42 -15.35 Q 84.29 -13.4 84.39 -11.9 L 84.39 -11.9 L 84.49 -10.35 Q 84.49 -5.4 81.74 -2.2 Q 78.99 1 74.24 1 L 74.24 1 Q 71.84 1 70.09 0.15 Q 68.34 -0.7 67.52 -1.78 Q 66.69 -2.85 66.19 -4.2 L 66.19 -4.2 Q 65.59 -6.05 65.59 -8.03 Q 65.59 -10 66.27 -12 Q 66.94 -14 67.82 -14.95 Q 68.69 -15.9 69.79 -16.5 L 69.79 -16.5 Q 71.19 -17.25 72.04 -17.25 Q 72.89 -17.25 72.89 -16.9 L 72.89 -16.9 L 72.59 -16.4 Q 71.49 -15.1 71.02 -13 Q 70.54 -10.9 70.54 -9.28 Q 70.54 -7.65 70.94 -6.05 Q 71.34 -4.45 71.84 -3.68 Q 72.34 -2.9 72.99 -2.5 L 72.99 -2.5 Q 73.94 -1.9 74.99 -1.9 Q 76.04 -1.9 77.04 -2.73 Q 78.04 -3.55 78.49 -4.9 L 78.49 -4.9 Q 79.39 -7.4 79.39 -10.05 L 79.39 -10.05 Q 79.39 -14.25 77.27 -16.55 Q 75.14 -18.85 70.99 -18.85 Z M 92.84 -28.6 L 92.84 -28.6 L 92.54 -10.25 Q 92.54 -1.65 93.09 0.05 L 93.09 0.05 Q 93.24 0.35 93.24 0.65 L 93.24 0.65 Q 93.24 1.25 91.79 1.25 Q 90.34 1.25 88.56 0.53 Q 86.79 -0.2 86.79 -1.35 L 86.79 -1.35 Q 87.79 -8.35 87.79 -20.05 L 87.79 -20.05 L 87.59 -27.7 Q 87.49 -29.1 87.02 -30.1 Q 86.54 -31.1 86.09 -31.4 L 86.09 -31.4 L 85.69 -31.65 Q 85.34 -31.85 85.34 -32.1 L 85.34 -32.1 Q 85.34 -32.8 87.52 -33.83 Q 89.69 -34.85 91.74 -34.85 L 91.74 -34.85 Q 92.54 -34.85 92.64 -34.3 L 92.64 -34.3 Q 92.84 -33 92.84 -28.6 Z M 112.94 -15 L 112.94 -15 L 112.84 -8.6 Q 112.84 -1.95 114.29 -0.6 L 114.29 -0.6 Q 114.49 -0.4 114.49 -0.15 L 114.49 -0.15 Q 114.49 0.6 111.26 0.6 Q 108.04 0.6 107.84 -1.3 L 107.84 -1.3 Q 107.79 -1.75 107.79 -3.15 L 107.79 -3.15 L 107.99 -11.15 Q 107.99 -11.5 107.59 -11.5 L 107.59 -11.5 Q 105.19 -11.5 103.09 -10.15 Q 100.99 -8.8 100.99 -6.7 L 100.99 -6.7 Q 100.99 -5.6 101.59 -4.85 Q 102.19 -4.1 103.06 -4.1 Q 103.94 -4.1 104.51 -4.45 Q 105.09 -4.8 105.19 -4.85 L 105.19 -4.85 Q 106.04 -4.75 106.04 -3.08 Q 106.04 -1.4 104.49 -0.38 Q 102.94 0.65 101.24 0.65 Q 99.54 0.65 98.31 0.05 Q 97.09 -0.55 96.54 -1.3 Q 95.99 -2.05 95.64 -3 L 95.64 -3 Q 95.29 -4.15 95.29 -5 L 95.29 -5 Q 95.29 -8.5 97.49 -10.6 Q 99.69 -12.7 103.14 -13.6 L 103.14 -13.6 Q 107.69 -14.5 107.89 -15.25 L 107.89 -15.25 Q 108.04 -15.8 108.04 -17.1 L 108.04 -17.1 Q 108.04 -19.75 105.34 -19.75 L 105.34 -19.75 Q 104.19 -19.75 103.29 -19.03 Q 102.39 -18.3 102.39 -17.2 L 102.39 -17.2 L 102.69 -16 Q 102.59 -15.15 100.89 -15 L 100.89 -15 L 100.34 -14.95 Q 98.84 -14.95 97.96 -15.7 Q 97.09 -16.45 97.09 -17.7 L 97.09 -17.7 Q 97.09 -18.5 97.61 -19.48 Q 98.14 -20.45 98.94 -21.05 Q 99.74 -21.65 101.41 -22.13 Q 103.09 -22.6 104.64 -22.6 Q 106.19 -22.6 107.04 -22.5 Q 107.89 -22.4 109.36 -22.03 Q 110.84 -21.65 111.81 -20.6 Q 112.79 -19.55 112.86 -18.38 Q 112.94 -17.2 112.94 -15 Z M 131.49 -17.2 L 131.24 -13.4 L 131.44 -11.65 Q 131.44 -10.7 129.64 -10.7 L 129.64 -10.7 Q 125.99 -10.7 125.99 -13.45 L 125.99 -13.45 Q 125.99 -14.1 126.34 -15.25 Q 126.69 -16.4 126.69 -17.25 Q 126.69 -18.1 126.19 -18.73 Q 125.69 -19.35 124.74 -19.35 Q 123.79 -19.35 123.11 -18.68 Q 122.44 -18 122.29 -17.3 L 122.29 -17.3 L 122.09 -16.6 Q 121.79 -15.05 121.79 -11.43 Q 121.79 -7.8 121.89 -5.73 Q 121.99 -3.65 122.09 -2.88 Q 122.19 -2.1 122.19 -1.95 L 122.19 -1.95 Q 122.19 -0.7 120.64 0.08 Q 119.09 0.85 117.54 0.85 Q 115.99 0.85 115.99 0.2 L 115.99 0.2 L 116.24 -1.35 Q 116.94 -5.7 116.94 -12.7 Q 116.94 -19.7 116.44 -22.2 L 116.44 -22.2 Q 116.44 -22.8 117.49 -22.8 L 117.49 -22.8 Q 120.19 -22.8 121.09 -20.95 L 121.09 -20.95 Q 121.14 -20.75 121.26 -20.75 Q 121.39 -20.75 121.94 -21.2 L 121.94 -21.2 Q 123.59 -22.55 125.84 -22.55 L 125.84 -22.55 Q 127.24 -22.55 128.64 -22 L 128.64 -22 Q 131.49 -20.85 131.49 -17.2 L 131.49 -17.2 Z M 150.08 -22.5 L 150.08 -22.5 L 150.13 -16.25 L 149.93 -7.6 Q 149.98 -7.4 150.08 -7.4 Q 150.18 -7.4 150.23 -7.5 L 150.23 -7.5 Q 151.23 -8.9 152.71 -8.9 Q 154.18 -8.9 154.18 -8.3 L 154.18 -8.3 Q 154.18 -6.4 154.91 -5.38 Q 155.63 -4.35 156.96 -4.35 Q 158.28 -4.35 159.51 -6.15 Q 160.73 -7.95 160.73 -10.95 L 160.73 -10.95 Q 160.73 -11.95 160.33 -13.35 L 160.33 -13.35 Q 159.53 -16.15 157.33 -17.1 L 157.33 -17.1 Q 155.73 -17.75 152.13 -17.75 L 152.13 -17.75 Q 151.73 -17.75 151.73 -18.3 L 151.73 -18.3 Q 151.73 -21.1 152.73 -21.2 L 152.73 -21.2 Q 154.08 -21.2 155.58 -21.9 L 155.58 -21.9 Q 158.58 -23.3 158.58 -27.65 L 158.58 -27.65 Q 158.58 -32.35 153.18 -32.35 L 153.18 -32.35 L 151.63 -32.25 Q 150.73 -32.05 150.63 -31.5 L 150.63 -31.5 L 150.63 -31.35 Q 150.08 -29.35 150.08 -22.5 Z M 142.73 0.7 L 142.73 0.7 L 142.83 0.15 Q 143.33 -0.75 143.68 -7.18 Q 144.03 -13.6 144.03 -19.18 Q 144.03 -24.75 143.81 -28.13 Q 143.58 -31.5 142.58 -33 L 142.58 -33 Q 142.38 -33.25 142.38 -33.6 Q 142.38 -33.95 142.98 -34.2 L 142.98 -34.2 Q 147.08 -35.8 154.13 -35.8 L 154.13 -35.8 Q 155.88 -35.8 157.93 -35.33 Q 159.98 -34.85 161.31 -34.15 Q 162.63 -33.45 163.71 -32 Q 164.78 -30.55 164.93 -28.55 L 164.93 -28.55 Q 164.93 -21.3 158.93 -20.2 L 158.93 -20.2 Q 158.63 -20.1 158.63 -19.98 Q 158.63 -19.85 158.88 -19.7 L 158.88 -19.7 Q 161.98 -19.2 164.08 -17.2 L 164.08 -17.2 Q 165.13 -16.25 165.98 -14.25 Q 166.83 -12.25 166.83 -9.65 L 166.83 -9.65 Q 166.83 -6.3 164.88 -3.3 L 164.88 -3.3 Q 163.28 -0.85 160.23 0.2 L 160.23 0.2 Q 158.53 0.8 156.43 0.8 L 156.43 0.8 Q 151.18 0.8 149.78 -2.55 L 149.78 -2.55 Q 149.73 -2.7 149.63 -2.7 L 149.63 -2.7 L 149.43 -2.5 Q 148.38 1 143.43 1.15 L 143.43 1.15 Q 142.73 1.15 142.73 0.7 Z M 184.28 -17.2 L 184.03 -13.4 L 184.23 -11.65 Q 184.23 -10.7 182.43 -10.7 L 182.43 -10.7 Q 178.78 -10.7 178.78 -13.45 L 178.78 -13.45 Q 178.78 -14.1 179.13 -15.25 Q 179.48 -16.4 179.48 -17.25 Q 179.48 -18.1 178.98 -18.73 Q 178.48 -19.35 177.53 -19.35 Q 176.58 -19.35 175.9 -18.68 Q 175.23 -18 175.08 -17.3 L 175.08 -17.3 L 174.88 -16.6 Q 174.58 -15.05 174.58 -11.43 Q 174.58 -7.8 174.68 -5.73 Q 174.78 -3.65 174.88 -2.88 Q 174.98 -2.1 174.98 -1.95 L 174.98 -1.95 Q 174.98 -0.7 173.43 0.08 Q 171.88 0.85 170.33 0.85 Q 168.78 0.85 168.78 0.2 L 168.78 0.2 L 169.03 -1.35 Q 169.73 -5.7 169.73 -12.7 Q 169.73 -19.7 169.23 -22.2 L 169.23 -22.2 Q 169.23 -22.8 170.28 -22.8 L 170.28 -22.8 Q 172.98 -22.8 173.88 -20.95 L 173.88 -20.95 Q 173.93 -20.75 174.05 -20.75 Q 174.18 -20.75 174.73 -21.2 L 174.73 -21.2 Q 176.38 -22.55 178.63 -22.55 L 178.63 -22.55 Q 180.03 -22.55 181.43 -22 L 181.43 -22 Q 184.28 -20.85 184.28 -17.2 L 184.28 -17.2 Z M 191.68 -26.75 L 191.68 -26.75 L 190.48 -26.8 Q 189.13 -26.8 188.73 -26.15 L 188.73 -26.15 Q 188.63 -26 188.48 -26 L 188.48 -26 Q 187.83 -26 187.83 -28.23 Q 187.83 -30.45 188.5 -31.05 Q 189.18 -31.65 190.85 -31.65 Q 192.53 -31.65 193.13 -31.08 Q 193.73 -30.5 193.73 -29.15 Q 193.73 -27.8 193.28 -27.28 Q 192.83 -26.75 191.68 -26.75 Z M 187.68 -1.5 L 187.68 -1.5 L 188.23 -13.15 Q 188.23 -17.3 187.28 -18.8 L 187.28 -18.8 Q 186.98 -19.3 186.58 -19.55 L 186.58 -19.55 Q 186.28 -19.65 186.28 -19.95 L 186.28 -19.95 Q 186.28 -20.85 188.83 -21.7 Q 191.38 -22.55 192.55 -22.55 Q 193.73 -22.55 193.78 -21.95 L 193.78 -21.95 Q 193.78 -20.95 193.5 -16.28 Q 193.23 -11.6 193.23 -6.45 Q 193.23 -1.3 193.83 -0.05 L 193.83 -0.05 Q 193.98 0.2 193.98 0.45 L 193.98 0.45 Q 193.98 1.1 192.08 1.1 Q 190.18 1.1 188.18 0.1 L 188.18 0.1 Q 187.68 -0.15 187.68 -1.5 Z M 207.02 -22.45 L 207.02 -22.45 Q 207.92 -22.45 208.65 -22.23 Q 209.37 -22 209.42 -22 L 209.42 -22 L 209.72 -22.25 L 209.52 -27.7 Q 209.42 -29.1 208.92 -30.1 Q 208.42 -31.1 208.02 -31.4 L 208.02 -31.4 L 207.57 -31.65 Q 207.27 -31.85 207.27 -32.1 L 207.27 -32.1 Q 207.27 -32.85 209.6 -33.85 Q 211.92 -34.85 213.22 -34.85 Q 214.52 -34.85 214.62 -34.3 L 214.62 -34.3 Q 214.87 -32.6 214.87 -27.83 Q 214.87 -23.05 214.65 -18.45 Q 214.42 -13.85 214.42 -8.03 Q 214.42 -2.2 215.17 -0.7 L 215.17 -0.7 Q 215.37 -0.35 215.37 -0.05 L 215.37 -0.05 Q 215.37 0.7 213.22 0.7 L 213.22 0.7 Q 209.12 0.7 209.12 -1.25 L 209.12 -1.25 Q 209.02 -2.05 209.02 -3.73 Q 209.02 -5.4 209.35 -9.98 Q 209.67 -14.55 209.67 -17.03 Q 209.67 -19.5 207.2 -19.5 Q 204.72 -19.5 203.42 -16.6 Q 202.12 -13.7 202.12 -10.8 L 202.12 -10.8 Q 202.12 -4.65 205.22 -4.65 L 205.22 -4.65 Q 205.67 -4.65 206.1 -4.83 Q 206.52 -5 206.62 -5 L 206.62 -5 Q 207.02 -5 207.25 -4.5 Q 207.47 -4 207.47 -3.5 L 207.47 -3.5 Q 207.47 -1.8 206.12 -0.63 Q 204.77 0.55 202.82 0.55 L 202.82 0.55 Q 199.82 0.55 198.3 -2.08 Q 196.77 -4.7 196.77 -8.6 L 196.77 -8.6 Q 196.77 -13.55 199.12 -17.8 L 199.12 -17.8 Q 200.32 -19.9 202.37 -21.18 Q 204.42 -22.45 207.02 -22.45 Z M 220.92 -20.18 Q 222.02 -21.3 223.82 -22.08 Q 225.62 -22.85 227.27 -22.85 Q 228.92 -22.85 230.62 -22.1 L 230.62 -22.1 Q 230.82 -22.1 230.92 -22.2 L 230.92 -22.2 Q 232.22 -23.5 234.72 -23.5 L 234.72 -23.5 Q 235.32 -23.5 235.32 -22.95 L 235.32 -22.95 Q 235.32 -22.9 235.22 -22.5 Q 235.12 -22.1 234.97 -21.33 Q 234.82 -20.55 234.72 -19.45 L 234.72 -19.45 Q 234.37 -16.6 234.35 -13.15 Q 234.32 -9.7 234.32 -6.25 L 234.32 -6.25 L 234.47 4.25 Q 234.47 9.3 231.87 12.65 L 231.87 12.65 Q 230.82 14 228.7 15 Q 226.57 16 223.72 16 L 223.72 16 Q 223.07 15.6 223.07 15.2 Q 223.07 14.8 223.62 14.55 L 223.62 14.55 Q 226.77 13.1 228.12 7.68 Q 229.47 2.25 229.47 -8.8 L 229.47 -8.8 L 229.37 -15.8 L 229.22 -19.2 Q 229.22 -19.65 227.82 -19.85 L 227.82 -19.85 Q 226.02 -19.85 224.8 -18.68 Q 223.57 -17.5 223.12 -15.6 L 223.12 -15.6 Q 222.32 -12.55 222.32 -10.33 Q 222.32 -8.1 223.05 -6.4 Q 223.77 -4.7 225.57 -4.7 L 225.57 -4.7 Q 226.07 -4.7 226.5 -4.9 Q 226.92 -5.1 227.07 -5.1 L 227.07 -5.1 Q 227.57 -5.1 227.57 -4.1 Q 227.57 -3.1 227.42 -2.48 Q 227.27 -1.85 226.82 -1.1 L 226.82 -1.1 Q 225.82 0.55 222.92 0.55 L 222.92 0.55 Q 220.02 0.55 218.77 -1.55 L 218.77 -1.55 Q 217.47 -3.7 217.27 -5.4 L 217.27 -5.4 Q 216.97 -7.95 216.97 -8.75 Q 216.97 -9.55 217 -10.03 Q 217.02 -10.5 217.25 -11.93 Q 217.47 -13.35 217.85 -14.63 Q 218.22 -15.9 219.02 -17.48 Q 219.82 -19.05 220.92 -20.18 Z M 242.32 -12.7 L 242.32 -12.7 L 242.37 -11.45 Q 242.37 -11.15 242.77 -11.15 L 242.77 -11.15 Q 244.37 -11.3 245.57 -11.98 Q 246.77 -12.65 247.37 -13.5 L 247.37 -13.5 Q 248.57 -15.35 248.67 -16.7 L 248.67 -16.7 L 248.72 -17.3 Q 248.72 -20 246.57 -20 L 246.57 -20 Q 244.97 -20 243.97 -18.6 L 243.97 -18.6 Q 242.32 -16.4 242.32 -12.7 Z M 253.22 -6.05 L 253.22 -6.05 Q 253.22 -4.15 252.44 -2.73 Q 251.67 -1.3 250.69 -0.63 Q 249.72 0.05 248.42 0.45 L 248.42 0.45 Q 246.77 0.95 245.27 0.95 L 245.27 0.95 Q 241.07 0.95 239.07 -2.2 Q 237.07 -5.35 237.07 -10.23 Q 237.07 -15.1 239.54 -18.9 Q 242.02 -22.7 246.97 -22.7 L 246.97 -22.7 Q 251.47 -22.7 253.07 -19.55 L 253.07 -19.55 Q 253.72 -18.35 253.72 -17.28 Q 253.72 -16.2 253.62 -15.58 Q 253.52 -14.95 252.92 -13.7 Q 252.32 -12.45 251.32 -11.45 Q 250.32 -10.45 248.17 -9.55 Q 246.02 -8.65 243.12 -8.35 L 243.12 -8.35 Q 242.72 -8.35 242.72 -8 L 242.72 -8 Q 242.72 -7.55 243.04 -6.68 Q 243.37 -5.8 243.77 -5.2 L 243.77 -5.2 Q 244.87 -3.8 247.02 -3.8 L 247.02 -3.8 Q 249.17 -3.8 250.67 -5.2 L 250.67 -5.2 Q 251.47 -5.95 251.97 -7.05 L 251.97 -7.05 Q 252.17 -7.45 252.49 -7.45 Q 252.82 -7.45 253.02 -6.9 Q 253.22 -6.35 253.22 -6.05 Z M 277.96 -28.65 L 277.96 -28.65 Q 274.01 -23.7 272.26 -18.75 L 272.26 -18.75 L 272.31 -18.75 Q 279.26 -18.75 280.29 -18.73 Q 281.31 -18.7 281.41 -18.8 Q 281.51 -18.9 281.56 -19.05 L 281.56 -19.05 Q 280.71 -25.2 280.21 -27.43 Q 279.71 -29.65 279.21 -29.65 Q 278.71 -29.65 277.96 -28.65 Z M 273.51 -5.1 L 273.51 -5.1 L 274.61 -5.3 Q 275.11 -5.3 275.11 -4.75 L 275.11 -4.75 Q 275.11 -3 274.41 -1.8 Q 273.71 -0.6 272.66 -0.1 L 272.66 -0.1 Q 270.96 0.75 269.76 0.75 L 269.76 0.75 Q 267.46 0.75 266.31 -0.98 Q 265.16 -2.7 265.16 -6.18 Q 265.16 -9.65 267.06 -15.2 L 267.06 -15.2 L 264.16 -15.2 Q 263.61 -15.2 263.61 -15.75 Q 263.61 -16.3 264.46 -17.53 Q 265.31 -18.75 266.26 -18.75 L 266.26 -18.75 L 268.51 -18.75 Q 272.06 -26.65 276.86 -32.4 L 276.86 -32.4 Q 278.11 -33.9 279.94 -35.2 Q 281.76 -36.5 282.76 -36.5 Q 283.76 -36.5 284.26 -35.6 L 284.26 -35.6 Q 285.56 -33.5 287.31 -20.25 L 287.31 -20.25 Q 287.91 -14.55 289.39 -8.47 Q 290.86 -2.4 292.11 -1.4 L 292.11 -1.4 Q 292.41 -1.2 292.41 -0.9 L 292.41 -0.9 Q 292.41 -0.15 290.29 0.5 Q 288.16 1.15 287.04 1.15 Q 285.91 1.15 285.31 0.88 Q 284.71 0.6 284.56 0.3 L 284.56 0.3 Q 283.66 -1.65 282.76 -9 L 282.76 -9 L 282.46 -11.35 Q 282.26 -13.7 282.06 -14.9 L 282.06 -14.9 L 281.71 -15.15 L 271.26 -15.2 Q 270.66 -12.65 270.66 -10.75 Q 270.66 -8.85 270.79 -7.98 Q 270.91 -7.1 271.61 -6.1 Q 272.31 -5.1 273.51 -5.1 Z M 309.46 -5.75 L 309.46 -5.75 Q 309.46 -2.9 307.19 -1.03 Q 304.91 0.85 301.76 0.85 L 301.76 0.85 Q 297.16 0.85 295.01 -1.93 Q 292.86 -4.7 292.86 -9.45 L 292.86 -9.45 Q 292.86 -14.5 295.11 -18.4 L 295.11 -18.4 Q 296.21 -20.4 298.26 -21.55 Q 300.31 -22.7 303.06 -22.7 L 303.06 -22.7 Q 307.21 -22.7 308.91 -19.9 L 308.91 -19.9 Q 309.61 -18.75 309.61 -17.2 L 309.61 -17.2 Q 309.61 -14.8 307.61 -13.6 L 307.61 -13.6 Q 306.81 -13.15 306.13 -13.15 Q 305.46 -13.15 305.04 -13.23 Q 304.61 -13.3 303.91 -13.9 Q 303.21 -14.5 303.21 -15.55 L 303.21 -15.55 Q 303.26 -16.1 304.06 -16.45 L 304.06 -16.45 Q 304.81 -16.9 304.81 -18.05 L 304.81 -18.05 Q 304.81 -20 302.41 -20 L 302.41 -20 Q 301.81 -20 300.99 -19.48 Q 300.16 -18.95 299.61 -18.13 Q 299.06 -17.3 298.59 -15.53 Q 298.11 -13.75 298.11 -12.13 Q 298.11 -10.5 298.24 -9.68 Q 298.36 -8.85 298.79 -7.43 Q 299.21 -6 300.38 -5.1 Q 301.56 -4.2 303.31 -4.2 L 303.31 -4.2 Q 305.41 -4.2 307.01 -5.95 L 307.01 -5.95 Q 307.66 -6.65 308.06 -7.65 L 308.06 -7.65 Q 308.26 -8.05 308.56 -8.05 L 308.56 -8.05 Q 309.01 -8.05 309.24 -7.23 Q 309.46 -6.4 309.46 -5.75 Z M 328.81 -15 L 328.81 -15 L 328.71 -8.6 Q 328.71 -1.95 330.16 -0.6 L 330.16 -0.6 Q 330.36 -0.4 330.36 -0.15 L 330.36 -0.15 Q 330.36 0.6 327.13 0.6 Q 323.91 0.6 323.71 -1.3 L 323.71 -1.3 Q 323.66 -1.75 323.66 -3.15 L 323.66 -3.15 L 323.86 -11.15 Q 323.86 -11.5 323.46 -11.5 L 323.46 -11.5 Q 321.06 -11.5 318.96 -10.15 Q 316.86 -8.8 316.86 -6.7 L 316.86 -6.7 Q 316.86 -5.6 317.46 -4.85 Q 318.06 -4.1 318.93 -4.1 Q 319.81 -4.1 320.38 -4.45 Q 320.96 -4.8 321.06 -4.85 L 321.06 -4.85 Q 321.91 -4.75 321.91 -3.08 Q 321.91 -1.4 320.36 -0.38 Q 318.81 0.65 317.11 0.65 Q 315.41 0.65 314.18 0.05 Q 312.96 -0.55 312.41 -1.3 Q 311.86 -2.05 311.51 -3 L 311.51 -3 Q 311.16 -4.15 311.16 -5 L 311.16 -5 Q 311.16 -8.5 313.36 -10.6 Q 315.56 -12.7 319.01 -13.6 L 319.01 -13.6 Q 323.56 -14.5 323.76 -15.25 L 323.76 -15.25 Q 323.91 -15.8 323.91 -17.1 L 323.91 -17.1 Q 323.91 -19.75 321.21 -19.75 L 321.21 -19.75 Q 320.06 -19.75 319.16 -19.03 Q 318.26 -18.3 318.26 -17.2 L 318.26 -17.2 L 318.56 -16 Q 318.46 -15.15 316.76 -15 L 316.76 -15 L 316.21 -14.95 Q 314.71 -14.95 313.83 -15.7 Q 312.96 -16.45 312.96 -17.7 L 312.96 -17.7 Q 312.96 -18.5 313.48 -19.48 Q 314.01 -20.45 314.81 -21.05 Q 315.61 -21.65 317.28 -22.13 Q 318.96 -22.6 320.51 -22.6 Q 322.06 -22.6 322.91 -22.5 Q 323.76 -22.4 325.23 -22.03 Q 326.71 -21.65 327.68 -20.6 Q 328.66 -19.55 328.73 -18.38 Q 328.81 -17.2 328.81 -15 Z M 341.86 -22.45 L 341.86 -22.45 Q 342.75 -22.45 343.48 -22.23 Q 344.21 -22 344.25 -22 L 344.25 -22 L 344.56 -22.25 L 344.36 -27.7 Q 344.25 -29.1 343.75 -30.1 Q 343.25 -31.1 342.86 -31.4 L 342.86 -31.4 L 342.41 -31.65 Q 342.11 -31.85 342.11 -32.1 L 342.11 -32.1 Q 342.11 -32.85 344.43 -33.85 Q 346.75 -34.85 348.06 -34.85 Q 349.36 -34.85 349.46 -34.3 L 349.46 -34.3 Q 349.71 -32.6 349.71 -27.83 Q 349.71 -23.05 349.48 -18.45 Q 349.25 -13.85 349.25 -8.03 Q 349.25 -2.2 350 -0.7 L 350 -0.7 Q 350.21 -0.35 350.21 -0.05 L 350.21 -0.05 Q 350.21 0.7 348.06 0.7 L 348.06 0.7 Q 343.96 0.7 343.96 -1.25 L 343.96 -1.25 Q 343.86 -2.05 343.86 -3.73 Q 343.86 -5.4 344.18 -9.98 Q 344.5 -14.55 344.5 -17.03 Q 344.5 -19.5 342.03 -19.5 Q 339.56 -19.5 338.25 -16.6 Q 336.96 -13.7 336.96 -10.8 L 336.96 -10.8 Q 336.96 -4.65 340.06 -4.65 L 340.06 -4.65 Q 340.5 -4.65 340.93 -4.83 Q 341.36 -5 341.46 -5 L 341.46 -5 Q 341.86 -5 342.08 -4.5 Q 342.31 -4 342.31 -3.5 L 342.31 -3.5 Q 342.31 -1.8 340.96 -0.63 Q 339.61 0.55 337.66 0.55 L 337.66 0.55 Q 334.66 0.55 333.13 -2.08 Q 331.61 -4.7 331.61 -8.6 L 331.61 -8.6 Q 331.61 -13.55 333.96 -17.8 L 333.96 -17.8 Q 335.16 -19.9 337.21 -21.18 Q 339.25 -22.45 341.86 -22.45 Z M 357.2 -12.7 L 357.2 -12.7 L 357.25 -11.45 Q 357.25 -11.15 357.65 -11.15 L 357.65 -11.15 Q 359.25 -11.3 360.45 -11.98 Q 361.65 -12.65 362.25 -13.5 L 362.25 -13.5 Q 363.45 -15.35 363.55 -16.7 L 363.55 -16.7 L 363.6 -17.3 Q 363.6 -20 361.45 -20 L 361.45 -20 Q 359.85 -20 358.85 -18.6 L 358.85 -18.6 Q 357.2 -16.4 357.2 -12.7 Z M 368.1 -6.05 L 368.1 -6.05 Q 368.1 -4.15 367.33 -2.73 Q 366.55 -1.3 365.58 -0.63 Q 364.6 0.05 363.3 0.45 L 363.3 0.45 Q 361.65 0.95 360.15 0.95 L 360.15 0.95 Q 355.95 0.95 353.95 -2.2 Q 351.95 -5.35 351.95 -10.23 Q 351.95 -15.1 354.43 -18.9 Q 356.9 -22.7 361.85 -22.7 L 361.85 -22.7 Q 366.35 -22.7 367.95 -19.55 L 367.95 -19.55 Q 368.6 -18.35 368.6 -17.28 Q 368.6 -16.2 368.5 -15.58 Q 368.4 -14.95 367.8 -13.7 Q 367.2 -12.45 366.2 -11.45 Q 365.2 -10.45 363.05 -9.55 Q 360.9 -8.65 358 -8.35 L 358 -8.35 Q 357.6 -8.35 357.6 -8 L 357.6 -8 Q 357.6 -7.55 357.93 -6.68 Q 358.25 -5.8 358.65 -5.2 L 358.65 -5.2 Q 359.75 -3.8 361.9 -3.8 L 361.9 -3.8 Q 364.05 -3.8 365.55 -5.2 L 365.55 -5.2 Q 366.35 -5.95 366.85 -7.05 L 366.85 -7.05 Q 367.05 -7.45 367.38 -7.45 Q 367.7 -7.45 367.9 -6.9 Q 368.1 -6.35 368.1 -6.05 Z M 382.15 0.3 L 382.15 0.3 Q 382.85 -3.2 382.85 -9.53 Q 382.85 -15.85 382.8 -17 Q 382.75 -18.15 382.1 -18.85 Q 381.45 -19.55 380.98 -19.65 Q 380.5 -19.75 379.65 -19.75 Q 378.8 -19.75 378 -18.98 Q 377.2 -18.2 377.05 -17.4 L 377.05 -17.4 L 376.85 -16.6 Q 376.7 -15.1 376.7 -9.95 Q 376.7 -4.8 376.93 -3.48 Q 377.15 -2.15 377.15 -1.7 Q 377.15 -1.25 376.75 -0.8 L 376.75 -0.8 Q 375.05 1 371.95 1 L 371.95 1 Q 370.85 1 370.85 0.35 L 370.85 0.35 Q 371.85 -5.65 371.85 -14.95 L 371.85 -14.95 Q 371.85 -18.4 371.7 -19.6 L 371.7 -19.6 L 371.5 -21.2 Q 371.45 -21.75 371.3 -22.4 L 371.3 -22.4 Q 371.3 -23 372.85 -23 L 372.85 -23 Q 375.15 -23 375.9 -21.3 L 375.9 -21.3 Q 375.95 -21.1 376.1 -21.1 Q 376.25 -21.1 376.8 -21.5 L 376.8 -21.5 Q 378.45 -22.8 381.25 -22.8 L 381.25 -22.8 Q 382.85 -22.8 384.4 -22.2 Q 385.95 -21.6 386.55 -20.6 L 386.55 -20.6 Q 386.6 -20.5 386.7 -20.5 Q 386.8 -20.5 387 -20.7 L 387 -20.7 Q 389.1 -22.8 392.45 -22.8 L 392.45 -22.8 Q 396.9 -22.8 398.55 -19.6 L 398.55 -19.6 Q 399.15 -18.35 399.15 -16.45 Q 399.15 -14.55 398.85 -11.05 Q 398.55 -7.55 398.55 -5.7 Q 398.55 -3.85 398.93 -2.35 Q 399.3 -0.85 399.68 -0.2 Q 400.05 0.45 400.05 0.55 L 400.05 0.55 Q 400.05 1.2 398.65 1.2 L 398.65 1.2 Q 395.2 1.2 393.85 -0.2 Q 392.5 -1.6 392.5 -3.88 Q 392.5 -6.15 393.43 -10.03 Q 394.35 -13.9 394.35 -15.85 L 394.35 -15.85 Q 394.35 -19.8 391.15 -19.8 L 391.15 -19.8 Q 389.8 -19.8 389 -19 Q 388.2 -18.2 388.05 -17.4 L 388.05 -17.4 L 387.95 -16.6 Q 387.75 -14.3 387.75 -11.05 Q 387.75 -7.8 387.85 -5.98 Q 387.95 -4.15 388.05 -3.13 Q 388.15 -2.1 388.15 -1.9 L 388.15 -1.9 Q 388.15 -0.5 386.4 0.25 Q 384.65 1 383 1 L 383 1 Q 382.15 1 382.15 0.3 Z M 410.55 13.85 L 410.55 13.85 Q 410.55 14.45 409.95 14.45 L 409.95 14.45 L 409.9 14.45 Q 408.25 14.45 406.17 13.3 Q 404.1 12.15 404.1 10.65 Q 404.1 9.15 406 5.43 Q 407.9 1.7 407.9 0.45 L 407.9 0.45 Q 407.9 -0.9 406.6 -4.4 L 406.6 -4.4 Q 404.95 -8.95 403.97 -11.8 Q 403 -14.65 401.87 -16.82 Q 400.75 -19 400.25 -19.4 L 400.25 -19.4 L 399.75 -19.75 Q 399.2 -20.05 399.2 -20.4 L 399.2 -20.4 Q 399.2 -21.1 401.37 -21.83 Q 403.55 -22.55 405.2 -22.55 L 405.2 -22.55 Q 405.95 -22.55 406.45 -21.35 L 406.45 -21.35 Q 407.35 -19 408.4 -14.85 L 408.4 -14.85 Q 410.95 -6.35 411.6 -6.35 L 411.6 -6.35 Q 412.05 -6.35 413.42 -9.85 Q 414.8 -13.35 414.8 -15.5 L 414.8 -15.5 Q 414.8 -19.25 412.6 -19.9 L 412.6 -19.9 Q 412.1 -20 412.1 -20.4 L 412.1 -20.4 Q 412.1 -21.3 414.45 -22.13 Q 416.8 -22.95 418.7 -22.95 L 418.7 -22.95 Q 420.35 -22.95 420.35 -20.8 L 420.35 -20.8 Q 420.35 -19.15 419.65 -16.95 Q 418.95 -14.75 418.35 -13.48 Q 417.75 -12.2 415.37 -7.58 Q 413 -2.95 411.45 0.55 L 411.45 0.55 Q 409.75 4.75 409.75 9.1 L 409.75 9.1 Q 409.75 11.4 410.15 12.55 Q 410.55 13.7 410.55 13.85 Z" stroke-linecap="round" />
</g>
		<g transform="matrix(0.85 0 0 0.85 77.05 90.27)" id="text-1"  >
<path style="stroke: none; stroke-width: 1; stroke-dasharray: none; stroke-linecap: butt; stroke-dashoffset: 0; stroke-linejoin: miter; stroke-miterlimit: 4; fill: rgb(0,116,217); fill-rule: nonzero; opacity: 1;" vector-effect="non-scaling-stroke"  transform=" translate(-406.95, 13.2)" d="M 18.1 -16.7 Q 24.9 -15.35 24.9 -8.95 L 24.9 -8.95 Q 24.9 -4.4 21.6 -2.1 Q 18.3 0.2 11.75 0.2 L 11.75 0.2 Q 7.35 0.2 4.7 0 L 4.7 0 L 4.65 0 L 4.9 -9.65 L 4.65 -32.05 L 13.55 -32.1 Q 18.05 -32.1 20.48 -30.1 Q 22.9 -28.1 22.9 -24.3 L 22.9 -24.3 Q 22.9 -21.6 21.65 -19.65 Q 20.4 -17.7 18.1 -16.7 L 18.1 -16.7 Z M 18.8 -23.85 Q 18.8 -26.45 17.38 -27.63 Q 15.95 -28.8 12.75 -28.8 L 12.75 -28.8 L 8.7 -28.8 L 8.6 -18.05 L 14.1 -17.9 Q 18.8 -19 18.8 -23.85 L 18.8 -23.85 Z M 12.35 -3.15 Q 16.45 -3.15 18.65 -4.7 Q 20.85 -6.25 20.85 -9.15 L 20.85 -9.15 Q 20.85 -14.05 14.7 -14.75 L 14.7 -14.75 L 8.55 -14.7 L 8.5 -10 L 8.65 -3.3 Q 10.6 -3.15 12.35 -3.15 L 12.35 -3.15 Z M 42.8 -10.05 Q 45.85 -5.4 49.55 -0.9 L 49.55 -0.9 L 49.5 -0.4 Q 47.4 0.25 46.05 0.35 L 46.05 0.35 L 45.4 -0.05 Q 41.6 -5.8 39.65 -9.1 L 39.65 -9.1 L 34.95 -9.05 L 34.95 -7.8 L 35.05 0 L 31.35 0 L 31.5 -7.5 L 31.35 -24.9 L 39.85 -24.95 Q 43.8 -24.95 45.92 -23.1 Q 48.05 -21.25 48.05 -17.75 L 48.05 -17.75 Q 48.05 -15.2 46.67 -13.2 Q 45.3 -11.2 42.8 -10.05 L 42.8 -10.05 Z M 35.05 -21.9 L 35 -12.15 L 39.7 -12 Q 44.15 -13.25 44.15 -17.45 L 44.15 -17.45 Q 44.15 -19.65 42.85 -20.75 Q 41.55 -21.85 38.9 -21.95 L 38.9 -21.95 L 35.05 -21.9 Z M 59.9 -24.9 L 59.75 -7.8 L 59.85 0 L 56.15 0 L 56.3 -7.5 L 56.15 -24.9 L 59.9 -24.9 Z M 78.84 -25.1 Q 84.54 -25.1 87.57 -22.05 Q 90.59 -19 90.59 -13.3 L 90.59 -13.3 Q 90.59 -6.75 87.29 -3.25 Q 83.99 0.25 77.84 0.25 L 77.84 0.25 Q 76.09 0.25 73.67 0.18 Q 71.24 0.1 69.09 0 L 69.09 0 L 69.24 -7.5 L 69.09 -24.9 L 78.84 -25.1 Z M 78.44 -2.8 Q 82.44 -2.8 84.62 -5.23 Q 86.79 -7.65 86.79 -12.55 L 86.79 -12.55 Q 86.79 -17.35 84.74 -19.65 Q 82.69 -21.95 78.54 -21.95 L 78.54 -21.95 Q 76.09 -21.95 72.79 -21.75 L 72.79 -21.75 L 72.69 -7.8 L 72.74 -3.1 Q 74.19 -3 75.79 -2.9 Q 77.39 -2.8 78.44 -2.8 L 78.44 -2.8 Z M 108.19 -25.15 Q 112.09 -25.15 116.04 -23.45 L 116.04 -23.45 L 114.79 -19.85 L 114.34 -19.85 Q 112.49 -21.05 110.94 -21.53 Q 109.39 -22 107.59 -22 L 107.59 -22 Q 103.34 -22 101.22 -19.6 Q 99.09 -17.2 99.09 -12.1 L 99.09 -12.1 Q 99.09 -7.2 101.04 -5.03 Q 102.99 -2.85 107.24 -2.85 L 107.24 -2.85 Q 108.49 -2.85 109.64 -3.08 Q 110.79 -3.3 112.44 -3.9 L 112.44 -3.9 L 112.44 -6.4 L 112.39 -9.95 L 115.84 -10.2 L 115.84 -1.2 Q 110.79 0.3 107.09 0.3 L 107.09 0.3 Q 101.19 0.3 98.17 -2.88 Q 95.14 -6.05 95.14 -11.95 L 95.14 -11.95 Q 95.14 -18.35 98.56 -21.75 Q 101.99 -25.15 108.19 -25.15 L 108.19 -25.15 Z M 127.44 -24.9 L 127.29 -7.8 L 127.39 0 L 123.69 0 L 123.84 -7.5 L 123.69 -24.9 L 127.44 -24.9 Z M 157.44 -25 L 157.28 -7.45 L 157.33 0 L 153.33 0 L 140.23 -19 L 139.98 -19 L 139.94 -8.3 L 140.03 0 L 136.63 0 L 136.78 -7.35 L 136.69 -24.9 L 140.63 -24.9 L 153.73 -5.9 L 154.08 -5.9 L 153.98 -24.75 L 157.44 -25 Z M 176.38 -25.15 Q 180.28 -25.15 184.23 -23.45 L 184.23 -23.45 L 182.98 -19.85 L 182.53 -19.85 Q 180.68 -21.05 179.13 -21.53 Q 177.58 -22 175.78 -22 L 175.78 -22 Q 171.53 -22 169.41 -19.6 Q 167.28 -17.2 167.28 -12.1 L 167.28 -12.1 Q 167.28 -7.2 169.23 -5.03 Q 171.18 -2.85 175.43 -2.85 L 175.43 -2.85 Q 176.68 -2.85 177.83 -3.08 Q 178.98 -3.3 180.63 -3.9 L 180.63 -3.9 L 180.63 -6.4 L 180.58 -9.95 L 184.03 -10.2 L 184.03 -1.2 Q 178.98 0.3 175.28 0.3 L 175.28 0.3 Q 169.38 0.3 166.36 -2.88 Q 163.33 -6.05 163.33 -11.95 L 163.33 -11.95 Q 163.33 -18.35 166.76 -21.75 Q 170.18 -25.15 176.38 -25.15 L 176.38 -25.15 Z M 204.33 -32.05 L 204.13 -10 L 204.28 0 L 200.33 0 L 200.48 -9.65 L 200.33 -32.05 L 204.33 -32.05 Z M 222.08 -32.05 L 209.08 -17 Q 215.73 -8.4 222.98 -0.85 L 222.98 -0.85 L 222.93 -0.35 Q 221.43 0.1 219.18 0.45 L 219.18 0.45 L 218.68 0.2 Q 210.78 -8.75 204.88 -16.8 L 204.88 -16.8 L 204.88 -17.1 L 215.58 -29.25 L 217.58 -32.05 L 222.08 -32.05 Z M 248.28 -25 L 248.13 -7.45 L 248.18 0 L 244.18 0 L 231.08 -19 L 230.83 -19 L 230.78 -8.3 L 230.88 0 L 227.48 0 L 227.63 -7.35 L 227.53 -24.9 L 231.48 -24.9 L 244.58 -5.9 L 244.93 -5.9 L 244.83 -24.75 L 248.28 -25 Z M 266.22 -25.2 Q 271.67 -25.2 274.6 -22 Q 277.52 -18.8 277.52 -12.95 L 277.52 -12.95 Q 277.52 -6.6 274.4 -3.13 Q 271.27 0.35 265.47 0.35 L 265.47 0.35 Q 260.07 0.35 257.12 -2.93 Q 254.17 -6.2 254.17 -12.25 L 254.17 -12.25 Q 254.17 -18.45 257.32 -21.83 Q 260.47 -25.2 266.22 -25.2 L 266.22 -25.2 Z M 265.87 -22.05 Q 261.92 -22.05 260 -19.8 Q 258.07 -17.55 258.07 -12.7 L 258.07 -12.7 Q 258.07 -7.5 259.97 -5.15 Q 261.87 -2.8 265.77 -2.8 L 265.77 -2.8 Q 269.77 -2.8 271.72 -5.1 Q 273.67 -7.4 273.67 -12.3 L 273.67 -12.3 Q 273.67 -17.35 271.75 -19.7 Q 269.82 -22.05 265.87 -22.05 L 265.87 -22.05 Z M 317.22 -24.9 L 307.92 0 L 303.92 0 L 299.02 -13.6 L 298.72 -13.6 L 293.57 0 L 289.57 0 L 281.42 -24.9 L 285.17 -24.9 L 285.62 -22.25 L 291.72 -4.15 L 291.97 -4.15 L 297.42 -18.7 L 295.37 -24.9 L 299.27 -24.9 L 299.82 -21.95 L 305.92 -4.15 L 306.22 -4.15 L 312.97 -22.05 L 313.57 -24.9 L 317.22 -24.9 Z M 335.87 -3.15 L 336.07 -2.8 L 335.82 0 L 322.57 0 L 322.72 -7.5 L 322.57 -24.9 L 326.32 -24.9 L 326.17 -7.8 L 326.27 -3.15 L 335.87 -3.15 Z M 350.07 -3 L 356.72 -3.2 L 357.02 -2.9 L 356.67 0 L 341.52 0 L 341.67 -7.5 L 341.52 -24.9 L 356.77 -24.9 L 357.02 -24.6 L 356.72 -21.7 L 350.42 -21.9 L 345.22 -21.85 L 345.17 -14.3 L 350.12 -14.25 L 354.47 -14.4 L 354.72 -14.05 L 354.42 -11.1 L 349.82 -11.25 L 345.17 -11.2 L 345.12 -7.8 L 345.17 -3.05 L 350.07 -3 Z M 373.01 -25.1 Q 378.71 -25.1 381.74 -22.05 Q 384.76 -19 384.76 -13.3 L 384.76 -13.3 Q 384.76 -6.75 381.46 -3.25 Q 378.16 0.25 372.01 0.25 L 372.01 0.25 Q 370.26 0.25 367.84 0.18 Q 365.41 0.1 363.26 0 L 363.26 0 L 363.41 -7.5 L 363.26 -24.9 L 373.01 -25.1 Z M 372.61 -2.8 Q 376.61 -2.8 378.79 -5.23 Q 380.96 -7.65 380.96 -12.55 L 380.96 -12.55 Q 380.96 -17.35 378.91 -19.65 Q 376.86 -21.95 372.71 -21.95 L 372.71 -21.95 Q 370.26 -21.95 366.96 -21.75 L 366.96 -21.75 L 366.86 -7.8 L 366.91 -3.1 Q 368.36 -3 369.96 -2.9 Q 371.56 -2.8 372.61 -2.8 L 372.61 -2.8 Z M 402.36 -25.15 Q 406.26 -25.15 410.21 -23.45 L 410.21 -23.45 L 408.96 -19.85 L 408.51 -19.85 Q 406.66 -21.05 405.11 -21.53 Q 403.56 -22 401.76 -22 L 401.76 -22 Q 397.51 -22 395.39 -19.6 Q 393.26 -17.2 393.26 -12.1 L 393.26 -12.1 Q 393.26 -7.2 395.21 -5.03 Q 397.16 -2.85 401.41 -2.85 L 401.41 -2.85 Q 402.66 -2.85 403.81 -3.08 Q 404.96 -3.3 406.61 -3.9 L 406.61 -3.9 L 406.61 -6.4 L 406.56 -9.95 L 410.01 -10.2 L 410.01 -1.2 Q 404.96 0.3 401.26 0.3 L 401.26 0.3 Q 395.36 0.3 392.34 -2.88 Q 389.31 -6.05 389.31 -11.95 L 389.31 -11.95 Q 389.31 -18.35 392.74 -21.75 Q 396.16 -25.15 402.36 -25.15 L 402.36 -25.15 Z M 426.41 -3 L 433.06 -3.2 L 433.36 -2.9 L 433.01 0 L 417.86 0 L 418.01 -7.5 L 417.86 -24.9 L 433.11 -24.9 L 433.36 -24.6 L 433.06 -21.7 L 426.76 -21.9 L 421.56 -21.85 L 421.51 -14.3 L 426.46 -14.25 L 430.81 -14.4 L 431.06 -14.05 L 430.76 -11.1 L 426.16 -11.25 L 421.51 -11.2 L 421.46 -7.8 L 421.51 -3.05 L 426.41 -3 Z M 441.46 -4.35 Q 443.56 -3.05 443.56 -1 L 443.56 -1 Q 443.56 2.25 438.86 5.7 L 438.86 5.7 L 437.51 4.45 L 437.51 4.1 Q 440.26 1.95 440.26 -0.3 L 440.26 -0.3 Q 440.26 -1.65 438.71 -2.65 L 438.71 -2.65 L 438.71 -3.05 Q 440.11 -4 441.46 -4.35 L 441.46 -4.35 Z M 472.9 -16.7 Q 479.7 -15.35 479.7 -8.95 L 479.7 -8.95 Q 479.7 -4.4 476.4 -2.1 Q 473.1 0.2 466.55 0.2 L 466.55 0.2 Q 462.15 0.2 459.5 0 L 459.5 0 L 459.45 0 L 459.7 -9.65 L 459.45 -32.05 L 468.35 -32.1 Q 472.85 -32.1 475.28 -30.1 Q 477.7 -28.1 477.7 -24.3 L 477.7 -24.3 Q 477.7 -21.6 476.45 -19.65 Q 475.2 -17.7 472.9 -16.7 L 472.9 -16.7 Z M 473.6 -23.85 Q 473.6 -26.45 472.18 -27.63 Q 470.75 -28.8 467.55 -28.8 L 467.55 -28.8 L 463.5 -28.8 L 463.4 -18.05 L 468.9 -17.9 Q 473.6 -19 473.6 -23.85 L 473.6 -23.85 Z M 467.15 -3.15 Q 471.25 -3.15 473.45 -4.7 Q 475.65 -6.25 475.65 -9.15 L 475.65 -9.15 Q 475.65 -14.05 469.5 -14.75 L 469.5 -14.75 L 463.35 -14.7 L 463.3 -10 L 463.45 -3.3 Q 465.4 -3.15 467.15 -3.15 L 467.15 -3.15 Z M 505.45 -24.9 L 505.3 -12.25 L 505.3 -8.65 Q 505.35 -4.4 502.72 -2.05 Q 500.1 0.3 495.2 0.3 L 495.2 0.3 Q 490.35 0.3 487.8 -2.02 Q 485.25 -4.35 485.35 -8.65 L 485.35 -8.65 L 485.4 -12.45 L 485.35 -24.9 L 489.1 -24.9 L 488.9 -9.25 Q 488.85 -6.1 490.47 -4.5 Q 492.1 -2.9 495.35 -2.9 L 495.35 -2.9 Q 498.55 -2.9 500.2 -4.5 Q 501.85 -6.1 501.8 -9.25 L 501.8 -9.25 L 501.65 -24.9 L 505.45 -24.9 Z M 517.35 -24.9 L 517.2 -7.8 L 517.3 0 L 513.6 0 L 513.75 -7.5 L 513.6 -24.9 L 517.35 -24.9 Z M 539.74 -3.15 L 539.94 -2.8 L 539.69 0 L 526.44 0 L 526.59 -7.5 L 526.44 -24.9 L 530.19 -24.9 L 530.04 -7.8 L 530.14 -3.15 L 539.74 -3.15 Z M 555.14 -25.1 Q 560.84 -25.1 563.87 -22.05 Q 566.89 -19 566.89 -13.3 L 566.89 -13.3 Q 566.89 -6.75 563.59 -3.25 Q 560.29 0.25 554.14 0.25 L 554.14 0.25 Q 552.39 0.25 549.97 0.18 Q 547.54 0.1 545.39 0 L 545.39 0 L 545.54 -7.5 L 545.39 -24.9 L 555.14 -25.1 Z M 554.74 -2.8 Q 558.74 -2.8 560.92 -5.23 Q 563.09 -7.65 563.09 -12.55 L 563.09 -12.55 Q 563.09 -17.35 561.04 -19.65 Q 558.99 -21.95 554.84 -21.95 L 554.84 -21.95 Q 552.39 -21.95 549.09 -21.75 L 549.09 -21.75 L 548.99 -7.8 L 549.04 -3.1 Q 550.49 -3 552.09 -2.9 Q 553.69 -2.8 554.74 -2.8 L 554.74 -2.8 Z M 577.44 -24.9 L 577.29 -7.8 L 577.39 0 L 573.69 0 L 573.84 -7.5 L 573.69 -24.9 L 577.44 -24.9 Z M 607.43 -25 L 607.28 -7.45 L 607.34 0 L 603.34 0 L 590.24 -19 L 589.99 -19 L 589.93 -8.3 L 590.03 0 L 586.63 0 L 586.78 -7.35 L 586.68 -24.9 L 590.63 -24.9 L 603.74 -5.9 L 604.09 -5.9 L 603.99 -24.75 L 607.43 -25 Z M 626.38 -25.15 Q 630.28 -25.15 634.23 -23.45 L 634.23 -23.45 L 632.98 -19.85 L 632.53 -19.85 Q 630.68 -21.05 629.13 -21.53 Q 627.58 -22 625.78 -22 L 625.78 -22 Q 621.53 -22 619.41 -19.6 Q 617.28 -17.2 617.28 -12.1 L 617.28 -12.1 Q 617.28 -7.2 619.23 -5.03 Q 621.18 -2.85 625.43 -2.85 L 625.43 -2.85 Q 626.68 -2.85 627.83 -3.08 Q 628.98 -3.3 630.63 -3.9 L 630.63 -3.9 L 630.63 -6.4 L 630.58 -9.95 L 634.03 -10.2 L 634.03 -1.2 Q 628.98 0.3 625.28 0.3 L 625.28 0.3 Q 619.38 0.3 616.36 -2.88 Q 613.33 -6.05 613.33 -11.95 L 613.33 -11.95 Q 613.33 -18.35 616.76 -21.75 Q 620.18 -25.15 626.38 -25.15 L 626.38 -25.15 Z M 659.93 -28.7 L 654.33 -28.6 L 654.23 -17.45 L 659.63 -17.35 L 664.83 -17.5 L 665.13 -17.1 L 664.78 -14.05 L 659.23 -14.2 L 654.18 -14.15 L 654.13 -10 L 654.33 0 L 650.28 0 L 650.53 -9.65 L 650.28 -32.05 L 667.33 -32.05 L 667.63 -31.65 L 667.28 -28.45 L 659.93 -28.7 Z M 691.12 -24.9 L 690.97 -12.25 L 690.97 -8.65 Q 691.02 -4.4 688.4 -2.05 Q 685.77 0.3 680.87 0.3 L 680.87 0.3 Q 676.02 0.3 673.47 -2.02 Q 670.92 -4.35 671.02 -8.65 L 671.02 -8.65 L 671.07 -12.45 L 671.02 -24.9 L 674.77 -24.9 L 674.57 -9.25 Q 674.52 -6.1 676.15 -4.5 Q 677.77 -2.9 681.02 -2.9 L 681.02 -2.9 Q 684.22 -2.9 685.87 -4.5 Q 687.52 -6.1 687.47 -9.25 L 687.47 -9.25 L 687.32 -24.9 L 691.12 -24.9 Z M 714.82 -24.9 L 715.02 -24.6 L 714.77 -21.45 L 710.12 -21.8 L 707.62 -21.8 L 707.47 -7.8 L 707.62 0 L 703.87 0 L 704.02 -7.5 L 703.92 -21.8 L 701.42 -21.8 L 696.67 -21.45 L 696.37 -21.8 L 696.67 -24.9 L 714.82 -24.9 Z M 740.42 -24.9 L 740.27 -12.25 L 740.27 -8.65 Q 740.32 -4.4 737.69 -2.05 Q 735.07 0.3 730.17 0.3 L 730.17 0.3 Q 725.32 0.3 722.77 -2.02 Q 720.22 -4.35 720.32 -8.65 L 720.32 -8.65 L 720.37 -12.45 L 720.32 -24.9 L 724.07 -24.9 L 723.87 -9.25 Q 723.82 -6.1 725.44 -4.5 Q 727.07 -2.9 730.32 -2.9 L 730.32 -2.9 Q 733.52 -2.9 735.17 -4.5 Q 736.82 -6.1 736.77 -9.25 L 736.77 -9.25 L 736.62 -24.9 L 740.42 -24.9 Z M 760.02 -10.05 Q 763.07 -5.4 766.77 -0.9 L 766.77 -0.9 L 766.72 -0.4 Q 764.62 0.25 763.27 0.35 L 763.27 0.35 L 762.62 -0.05 Q 758.82 -5.8 756.87 -9.1 L 756.87 -9.1 L 752.17 -9.05 L 752.17 -7.8 L 752.27 0 L 748.57 0 L 748.72 -7.5 L 748.57 -24.9 L 757.07 -24.95 Q 761.02 -24.95 763.14 -23.1 Q 765.27 -21.25 765.27 -17.75 L 765.27 -17.75 Q 765.27 -15.2 763.89 -13.2 Q 762.52 -11.2 760.02 -10.05 L 760.02 -10.05 Z M 752.27 -21.9 L 752.22 -12.15 L 756.92 -12 Q 761.37 -13.25 761.37 -17.45 L 761.37 -17.45 Q 761.37 -19.65 760.07 -20.75 Q 758.77 -21.85 756.12 -21.95 L 756.12 -21.95 L 752.27 -21.9 Z M 781.91 -3 L 788.56 -3.2 L 788.86 -2.9 L 788.51 0 L 773.36 0 L 773.51 -7.5 L 773.36 -24.9 L 788.61 -24.9 L 788.86 -24.6 L 788.56 -21.7 L 782.26 -21.9 L 777.06 -21.85 L 777.01 -14.3 L 781.96 -14.25 L 786.31 -14.4 L 786.56 -14.05 L 786.26 -11.1 L 781.66 -11.25 L 777.01 -11.2 L 776.96 -7.8 L 777.01 -3.05 L 781.91 -3 Z M 802.46 -25.15 Q 805.51 -25.15 808.56 -23.95 L 808.56 -23.95 L 807.91 -20.25 L 807.31 -20.1 Q 805.91 -21.2 804.66 -21.73 Q 803.41 -22.25 802.06 -22.25 L 802.06 -22.25 Q 799.91 -22.25 798.66 -21.13 Q 797.41 -20 797.41 -18.55 L 797.41 -18.55 Q 797.41 -17.1 798.64 -16.2 Q 799.86 -15.3 802.41 -14.2 L 802.41 -14.2 Q 804.66 -13.2 805.99 -12.4 Q 807.31 -11.6 808.29 -10.28 Q 809.26 -8.95 809.26 -7.05 L 809.26 -7.05 Q 809.26 -5.1 808.21 -3.43 Q 807.16 -1.75 805.14 -0.73 Q 803.11 0.3 800.31 0.3 L 800.31 0.3 Q 798.56 0.3 796.64 -0.13 Q 794.71 -0.55 793.06 -1.4 L 793.06 -1.4 L 793.51 -5.35 L 794.01 -5.55 Q 795.41 -4.15 797.29 -3.38 Q 799.16 -2.6 800.76 -2.6 L 800.76 -2.6 Q 802.86 -2.6 804.21 -3.73 Q 805.56 -4.85 805.56 -6.45 L 805.56 -6.45 Q 805.56 -7.95 804.34 -8.85 Q 803.11 -9.75 800.51 -10.95 L 800.51 -10.95 Q 798.36 -11.9 796.99 -12.7 Q 795.61 -13.5 794.66 -14.83 Q 793.71 -16.15 793.71 -18.05 L 793.71 -18.05 Q 793.71 -20.05 794.79 -21.65 Q 795.86 -23.25 797.84 -24.2 Q 799.81 -25.15 802.46 -25.15 L 802.46 -25.15 Z" stroke-linecap="round" />
</g>
		<g transform="matrix(3.06 0 0 3.06 597.83 -71.9)"  >
<path style="stroke: none; stroke-width: 1; stroke-dasharray: none; stroke-linecap: butt; stroke-dashoffset: 0; stroke-linejoin: miter; stroke-miterlimit: 4; fill: rgb(0,116,217); fill-rule: nonzero; opacity: 1;" vector-effect="non-scaling-stroke"  transform=" translate(-47.93, -25.51)" d="M 68.043 16.055 L 47.933 22.815 L 27.813 16.055 L 27.813 27.425 C 27.813 29.405 29.053 31.185 30.913 31.865 C 36.553 33.915 42.283 34.965 47.933 34.965 C 53.583 34.965 59.303 33.915 64.943 31.865 C 66.793 31.185 68.043 29.405 68.043 27.425 z" stroke-linecap="round" />
</g>
		<g transform="matrix(3.06 0 0 3.06 603.24 -89.4)"  >
<path style="stroke: none; stroke-width: 1; stroke-dasharray: none; stroke-linecap: butt; stroke-dashoffset: 0; stroke-linejoin: miter; stroke-miterlimit: 4; fill: rgb(0,116,217); fill-rule: nonzero; opacity: 1;" vector-effect="non-scaling-stroke"  transform=" translate(-49.69, -19.8)" d="M 74.343 11.835 L 75.993 11.835 C 76.083 11.835 76.153 11.915 76.153 11.995 L 76.153 26.215 C 75.383 26.585 74.833 27.375 74.833 28.295 C 74.833 28.925 75.093 29.495 75.503 29.915 L 73.483 37.685 C 73.353 38.155 73.713 38.615 74.193 38.615 L 80.103 38.615 C 80.593 38.615 80.943 38.155 80.823 37.685 L 78.793 29.915 C 79.293 29.415 79.553 28.705 79.443 27.925 C 79.323 27.175 78.823 26.535 78.153 26.205 L 78.153 11.995 C 78.153 10.805 77.183 9.835 75.993 9.835 L 74.343 9.835 L 47.933 0.975 L 18.543 10.835 L 47.933 20.705 z M 46.093 10.835 C 46.093 10.025 47.163 9.365 48.493 9.365 C 49.82300000000001 9.365 50.903 10.025 50.903 10.835 C 50.903 11.655 49.823 12.315 48.493 12.315 C 47.163000000000004 12.315 46.093 11.655 46.093 10.835" stroke-linecap="round" />
</g>
		<g transform="matrix(3.06 0 0 3.06 598.21 -11.75)"  >
<path style="stroke: none; stroke-width: 1; stroke-dasharray: none; stroke-linecap: butt; stroke-dashoffset: 0; stroke-linejoin: miter; stroke-miterlimit: 4; fill: rgb(0,116,217); fill-rule: nonzero; opacity: 1;" vector-effect="non-scaling-stroke"  transform=" translate(-48.05, -45.16)" d="M 65.633 33.745 C 59.743 35.885 53.793 36.965 47.933 36.965 C 42.063 36.965 36.113 35.885 30.233 33.745 C 29.643 33.525 29.093 33.235 28.603 32.875 C 28.983 39.385 32.053 46.755 36.633 51.775 C 43.273 59.045 52.373 60.085 59.643 51.885 C 64.183 46.755 67.223 39.155 67.503 32.685 C 66.953 33.125 66.323 33.485 65.633 33.745" stroke-linecap="round" />
</g>
		<g transform="matrix(3.06 0 0 3.06 470.19 118.04)"  >
<rect style="stroke: none; stroke-width: 1; stroke-dasharray: none; stroke-linecap: butt; stroke-dashoffset: 0; stroke-linejoin: miter; stroke-miterlimit: 4; fill: rgb(0,116,217); fill-rule: nonzero; opacity: 1;" vector-effect="non-scaling-stroke"  x="-1" y="-1" rx="0" ry="0" width="2" height="2" />
</g>
		<g transform="matrix(3.06 0 0 3.06 470.19 105.79)"  >
<rect style="stroke: none; stroke-width: 1; stroke-dasharray: none; stroke-linecap: butt; stroke-dashoffset: 0; stroke-linejoin: miter; stroke-miterlimit: 4; fill: rgb(0,116,217); fill-rule: nonzero; opacity: 1;" vector-effect="non-scaling-stroke"  x="-1" y="-1" rx="0" ry="0" width="2" height="2" />
</g>
		<g transform="matrix(3.06 0 0 3.06 470.19 93.55)"  >
<rect style="stroke: none; stroke-width: 1; stroke-dasharray: none; stroke-linecap: butt; stroke-dashoffset: 0; stroke-linejoin: miter; stroke-miterlimit: 4; fill: rgb(0,116,217); fill-rule: nonzero; opacity: 1;" vector-effect="non-scaling-stroke"  x="-1" y="-1" rx="0" ry="0" width="2" height="2" />
</g>
		<g transform="matrix(3.06 0 0 3.06 470.19 81.31)"  >
<rect style="stroke: none; stroke-width: 1; stroke-dasharray: none; stroke-linecap: butt; stroke-dashoffset: 0; stroke-linejoin: miter; stroke-miterlimit: 4; fill: rgb(0,116,217); fill-rule: nonzero; opacity: 1;" vector-effect="non-scaling-stroke"  x="-1" y="-1" rx="0" ry="0" width="2" height="2" />
</g>
		<g transform="matrix(3.06 0 0 3.06 470.19 130.28)"  >
<rect style="stroke: none; stroke-width: 1; stroke-dasharray: none; stroke-linecap: butt; stroke-dashoffset: 0; stroke-linejoin: miter; stroke-miterlimit: 4; fill: rgb(0,116,217); fill-rule: nonzero; opacity: 1;" vector-effect="non-scaling-stroke"  x="-1" y="-1" rx="0" ry="0" width="2" height="2" />
</g>
		<g transform="matrix(3.06 0 0 3.06 686.67 33.21)"  >
<path style="stroke: none; stroke-width: 1; stroke-dasharray: none; stroke-linecap: butt; stroke-dashoffset: 0; stroke-linejoin: miter; stroke-miterlimit: 4; fill: rgb(0,116,217); fill-rule: nonzero; opacity: 1;" vector-effect="non-scaling-stroke"  transform=" translate(-76.95, -59.85)" d="M 75.882 60.781 C 76.499 60.781 77.122 60.826 77.729 60.915 L 78.02 58.935 C 77.3119177818853 58.83274623145403 76.59742727200934 58.78128152681376 75.882 58.781 z" stroke-linecap="round" />
</g>
		<g transform="matrix(3.06 0 0 3.06 698.54 35.78)"  >
<path style="stroke: none; stroke-width: 1; stroke-dasharray: none; stroke-linecap: butt; stroke-dashoffset: 0; stroke-linejoin: miter; stroke-miterlimit: 4; fill: rgb(0,116,217); fill-rule: nonzero; opacity: 1;" vector-effect="non-scaling-stroke"  transform=" translate(-80.83, -60.69)" d="M 79.538 61.316 C 80.128 61.493 80.711 61.715 81.268 61.976 L 82.117 60.165 C 81.46778808076495 59.862457959543754 80.79774044635886 59.6068038745958 80.112 59.4 z" stroke-linecap="round" />
</g>
		<g transform="matrix(3.06 0 0 3.06 722.93 60.52)"  >
<path style="stroke: none; stroke-width: 1; stroke-dasharray: none; stroke-linecap: butt; stroke-dashoffset: 0; stroke-linejoin: miter; stroke-miterlimit: 4; fill: rgb(0,116,217); fill-rule: nonzero; opacity: 1;" vector-effect="non-scaling-stroke"  transform=" translate(-88.8, -68.77)" d="M 88.09 69.852 L 90.004 69.274 C 89.84049626390853 68.7358772602063 89.64685716467223 68.20737606349755 89.424 67.691 L 87.59 68.485 C 87.78 68.93 87.95 69.39 88.089 69.852" stroke-linecap="round" />
</g>
		<g transform="matrix(3.06 0 0 3.06 717.55 50.35)"  >
<path style="stroke: none; stroke-width: 1; stroke-dasharray: none; stroke-linecap: butt; stroke-dashoffset: 0; stroke-linejoin: miter; stroke-miterlimit: 4; fill: rgb(0,116,217); fill-rule: nonzero; opacity: 1;" vector-effect="non-scaling-stroke"  transform=" translate(-87.04, -65.45)" d="M 86.734 66.845 L 88.434 65.79 C 88.05717227905643 65.18281958310247 87.63743661573884 64.60334375492356 87.178 64.056 L 85.646 65.342 C 86.042 65.812 86.407 66.32 86.734 66.845" stroke-linecap="round" />
</g>
		<g transform="matrix(3.06 0 0 3.06 709.12 41.67)"  >
<path style="stroke: none; stroke-width: 1; stroke-dasharray: none; stroke-linecap: butt; stroke-dashoffset: 0; stroke-linejoin: miter; stroke-miterlimit: 4; fill: rgb(0,116,217); fill-rule: nonzero; opacity: 1;" vector-effect="non-scaling-stroke"  transform=" translate(-84.29, -62.61)" d="M 85.686 62.52 C 85.15123963260538 62.044334922083095 84.5831216591742 61.607552456627474 83.98599999999999 61.212999999999994 L 82.885 62.882 C 83.4 63.222 83.895 63.602 84.353 64.012 z" stroke-linecap="round" />
</g>
		<g transform="matrix(3.06 0 0 3.06 597.78 69.03)"  >
<path style="stroke: none; stroke-width: 1; stroke-dasharray: none; stroke-linecap: butt; stroke-dashoffset: 0; stroke-linejoin: miter; stroke-miterlimit: 4; fill: rgb(0,116,217); fill-rule: nonzero; opacity: 1;" vector-effect="non-scaling-stroke"  transform=" translate(-47.91, -71.55)" d="M 48.343 59.635 C 44.783 59.635 41.203 58.285 37.993 55.775 C 37.693 58.05 36.917 60.347 35.686 62.64 L 47.926 87.327 L 60.135 62.516 C 59.022 60.413 58.274 58.306 57.933 56.205 C 54.973 58.465 51.723 59.635 48.343 59.635" stroke-linecap="round" />
</g>
		<g transform="matrix(3.06 0 0 3.06 597.85 96.11)"  >
<path style="stroke: none; stroke-width: 1; stroke-dasharray: none; stroke-linecap: butt; stroke-dashoffset: 0; stroke-linejoin: miter; stroke-miterlimit: 4; fill: rgb(0,116,217); fill-rule: nonzero; opacity: 1;" vector-effect="non-scaling-stroke"  transform=" translate(-47.93, -80.4)" d="M 61.743 63.775 L 47.923 91.825 L 34.013 63.775 L 19.973 63.775 C 14.593 63.775 10.223 68.145 10.223 73.525 L 10.223 97.025 L 23.903 97.025 L 23.903 88.215 L 25.903 88.215 L 25.903 97.025 L 69.953 97.025 L 69.953 88.215 L 71.953 88.215 L 71.953 97.025 L 85.643 97.025 L 85.643 73.525 C 85.643 68.145 81.263 63.775 75.883 63.775 z" stroke-linecap="round" />
</g>
		<g transform="matrix(3.06 0 0 3.06 698.6 -104.33)"  >
<rect style="stroke: none; stroke-width: 1; stroke-dasharray: none; stroke-linecap: butt; stroke-dashoffset: 0; stroke-linejoin: miter; stroke-miterlimit: 4; fill: rgb(0,116,217); fill-rule: nonzero; opacity: 1;" vector-effect="non-scaling-stroke"  x="-1" y="-1" rx="0" ry="0" width="2" height="2" />
</g>
		<g transform="matrix(3.06 0 0 3.06 698.6 -79.84)"  >
<rect style="stroke: none; stroke-width: 1; stroke-dasharray: none; stroke-linecap: butt; stroke-dashoffset: 0; stroke-linejoin: miter; stroke-miterlimit: 4; fill: rgb(0,116,217); fill-rule: nonzero; opacity: 1;" vector-effect="non-scaling-stroke"  x="-1" y="-1" rx="0" ry="0" width="2" height="2" />
</g>
		<g transform="matrix(3.06 0 0 3.06 698.6 -92.09)"  >
<rect style="stroke: none; stroke-width: 1; stroke-dasharray: none; stroke-linecap: butt; stroke-dashoffset: 0; stroke-linejoin: miter; stroke-miterlimit: 4; fill: rgb(0,116,217); fill-rule: nonzero; opacity: 1;" vector-effect="non-scaling-stroke"  x="-1" y="-1" rx="0" ry="0" width="2" height="2" />
</g>
		<g transform="matrix(3.06 0 0 3.06 469.59 11.08)"  >
<rect style="stroke: none; stroke-width: 1; stroke-dasharray: none; stroke-linecap: butt; stroke-dashoffset: 0; stroke-linejoin: miter; stroke-miterlimit: 4; fill: rgb(0,116,217); fill-rule: nonzero; opacity: 1;" vector-effect="non-scaling-stroke"  x="-1" y="-1" rx="0" ry="0" width="2" height="2" />
</g>
		<g transform="matrix(3.06 0 0 3.06 481.84 11.08)"  >
<rect style="stroke: none; stroke-width: 1; stroke-dasharray: none; stroke-linecap: butt; stroke-dashoffset: 0; stroke-linejoin: miter; stroke-miterlimit: 4; fill: rgb(0,116,217); fill-rule: nonzero; opacity: 1;" vector-effect="non-scaling-stroke"  x="-1" y="-1" rx="0" ry="0" width="2" height="2" />
</g>
		<g transform="matrix(3.06 0 0 3.06 457.35 11.08)"  >
<rect style="stroke: none; stroke-width: 1; stroke-dasharray: none; stroke-linecap: butt; stroke-dashoffset: 0; stroke-linejoin: miter; stroke-miterlimit: 4; fill: rgb(0,116,217); fill-rule: nonzero; opacity: 1;" vector-effect="non-scaling-stroke"  x="-1" y="-1" rx="0" ry="0" width="2" height="2" />
</g>
		<g transform="matrix(3.06 0 0 3.06 501.4 -30.88)"  >
<rect style="stroke: none; stroke-width: 1; stroke-dasharray: none; stroke-linecap: butt; stroke-dashoffset: 0; stroke-linejoin: miter; stroke-miterlimit: 4; fill: rgb(0,116,217); fill-rule: nonzero; opacity: 1;" vector-effect="non-scaling-stroke"  x="-1" y="-1" rx="0" ry="0" width="2" height="2" />
</g>
		<g transform="matrix(3.06 0 0 3.06 513.64 -30.88)"  >
<rect style="stroke: none; stroke-width: 1; stroke-dasharray: none; stroke-linecap: butt; stroke-dashoffset: 0; stroke-linejoin: miter; stroke-miterlimit: 4; fill: rgb(0,116,217); fill-rule: nonzero; opacity: 1;" vector-effect="non-scaling-stroke"  x="-1" y="-1" rx="0" ry="0" width="2" height="2" />
</g>
		<g transform="matrix(3.06 0 0 3.06 525.88 -30.88)"  >
<rect style="stroke: none; stroke-width: 1; stroke-dasharray: none; stroke-linecap: butt; stroke-dashoffset: 0; stroke-linejoin: miter; stroke-miterlimit: 4; fill: rgb(0,116,217); fill-rule: nonzero; opacity: 1;" vector-effect="non-scaling-stroke"  x="-1" y="-1" rx="0" ry="0" width="2" height="2" />
</g>
		<g transform="matrix(3.06 0 0 3.06 473.45 -102.9)"  >
<rect style="stroke: none; stroke-width: 1; stroke-dasharray: none; stroke-linecap: butt; stroke-dashoffset: 0; stroke-linejoin: miter; stroke-miterlimit: 4; fill: rgb(0,116,217); fill-rule: nonzero; opacity: 1;" vector-effect="non-scaling-stroke"  x="-1" y="-1" rx="0" ry="0" width="2" height="2" />
</g>
		<g transform="matrix(3.06 0 0 3.06 497.93 -102.9)"  >
<rect style="stroke: none; stroke-width: 1; stroke-dasharray: none; stroke-linecap: butt; stroke-dashoffset: 0; stroke-linejoin: miter; stroke-miterlimit: 4; fill: rgb(0,116,217); fill-rule: nonzero; opacity: 1;" vector-effect="non-scaling-stroke"  x="-1" y="-1" rx="0" ry="0" width="2" height="2" />
</g>
		<g transform="matrix(3.06 0 0 3.06 485.69 -102.9)"  >
<rect style="stroke: none; stroke-width: 1; stroke-dasharray: none; stroke-linecap: butt; stroke-dashoffset: 0; stroke-linejoin: miter; stroke-miterlimit: 4; fill: rgb(0,116,217); fill-rule: nonzero; opacity: 1;" vector-effect="non-scaling-stroke"  x="-1" y="-1" rx="0" ry="0" width="2" height="2" />
</g>
		<g transform="matrix(3.06 0 0 3.06 488.53 -66.84)"  >
<polygon style="stroke: none; stroke-width: 1; stroke-dasharray: none; stroke-linecap: butt; stroke-dashoffset: 0; stroke-linejoin: miter; stroke-miterlimit: 4; fill: rgb(0,116,217); fill-rule: nonzero; opacity: 1;" vector-effect="non-scaling-stroke"  points="-1,2.69 1,2.69 1,1 2.69,1 2.69,-1 1,-1 1,-2.69 -1,-2.69 -1,-1 -2.69,-1 -2.69,1 -1,1 " />
</g>
		<g transform="matrix(3.06 0 0 3.06 720.39 19.6)"  >
<rect style="stroke: none; stroke-width: 1; stroke-dasharray: none; stroke-linecap: butt; stroke-dashoffset: 0; stroke-linejoin: miter; stroke-miterlimit: 4; fill: rgb(0,116,217); fill-rule: nonzero; opacity: 1;" vector-effect="non-scaling-stroke"  x="-1" y="-1" rx="0" ry="0" width="2" height="2" />
</g>
		<g transform="matrix(3.06 0 0 3.06 744.88 19.6)"  >
<rect style="stroke: none; stroke-width: 1; stroke-dasharray: none; stroke-linecap: butt; stroke-dashoffset: 0; stroke-linejoin: miter; stroke-miterlimit: 4; fill: rgb(0,116,217); fill-rule: nonzero; opacity: 1;" vector-effect="non-scaling-stroke"  x="-1" y="-1" rx="0" ry="0" width="2" height="2" />
</g>
		<g transform="matrix(3.06 0 0 3.06 732.63 19.6)"  >
<rect style="stroke: none; stroke-width: 1; stroke-dasharray: none; stroke-linecap: butt; stroke-dashoffset: 0; stroke-linejoin: miter; stroke-miterlimit: 4; fill: rgb(0,116,217); fill-rule: nonzero; opacity: 1;" vector-effect="non-scaling-stroke"  x="-1" y="-1" rx="0" ry="0" width="2" height="2" />
</g>
		<g transform="matrix(3.06 0 0 3.06 677.56 -2.83)"  >
<rect style="stroke: none; stroke-width: 1; stroke-dasharray: none; stroke-linecap: butt; stroke-dashoffset: 0; stroke-linejoin: miter; stroke-miterlimit: 4; fill: rgb(0,116,217); fill-rule: nonzero; opacity: 1;" vector-effect="non-scaling-stroke"  x="-1" y="-1" rx="0" ry="0" width="2" height="2" />
</g>
		<g transform="matrix(3.06 0 0 3.06 665.31 -2.83)"  >
<rect style="stroke: none; stroke-width: 1; stroke-dasharray: none; stroke-linecap: butt; stroke-dashoffset: 0; stroke-linejoin: miter; stroke-miterlimit: 4; fill: rgb(0,116,217); fill-rule: nonzero; opacity: 1;" vector-effect="non-scaling-stroke"  x="-1" y="-1" rx="0" ry="0" width="2" height="2" />
</g>
		<g transform="matrix(3.06 0 0 3.06 689.8 -2.83)"  >
<rect style="stroke: none; stroke-width: 1; stroke-dasharray: none; stroke-linecap: butt; stroke-dashoffset: 0; stroke-linejoin: miter; stroke-miterlimit: 4; fill: rgb(0,116,217); fill-rule: nonzero; opacity: 1;" vector-effect="non-scaling-stroke"  x="-1" y="-1" rx="0" ry="0" width="2" height="2" />
</g>
		<g transform="matrix(3.06 0 0 3.06 729.99 -80.98)"  >
<rect style="stroke: none; stroke-width: 1; stroke-dasharray: none; stroke-linecap: butt; stroke-dashoffset: 0; stroke-linejoin: miter; stroke-miterlimit: 4; fill: rgb(0,116,217); fill-rule: nonzero; opacity: 1;" vector-effect="non-scaling-stroke"  x="-1" y="-1" rx="0" ry="0" width="2" height="2" />
</g>
		<g transform="matrix(3.06 0 0 3.06 717.75 -80.98)"  >
<rect style="stroke: none; stroke-width: 1; stroke-dasharray: none; stroke-linecap: butt; stroke-dashoffset: 0; stroke-linejoin: miter; stroke-miterlimit: 4; fill: rgb(0,116,217); fill-rule: nonzero; opacity: 1;" vector-effect="non-scaling-stroke"  x="-1" y="-1" rx="0" ry="0" width="2" height="2" />
</g>
		<g transform="matrix(3.06 0 0 3.06 742.24 -80.98)"  >
<rect style="stroke: none; stroke-width: 1; stroke-dasharray: none; stroke-linecap: butt; stroke-dashoffset: 0; stroke-linejoin: miter; stroke-miterlimit: 4; fill: rgb(0,116,217); fill-rule: nonzero; opacity: 1;" vector-effect="non-scaling-stroke"  x="-1" y="-1" rx="0" ry="0" width="2" height="2" />
</g>
		<g transform="matrix(3.06 0 0 3.06 727.15 -44.92)"  >
<polygon style="stroke: none; stroke-width: 1; stroke-dasharray: none; stroke-linecap: butt; stroke-dashoffset: 0; stroke-linejoin: miter; stroke-miterlimit: 4; fill: rgb(0,116,217); fill-rule: nonzero; opacity: 1;" vector-effect="non-scaling-stroke"  points="-2.69,1 -1,1 -1,2.69 1,2.69 1,1 2.69,1 2.69,-1 1,-1 1,-2.69 -1,-2.69 -1,-1 -2.69,-1 " />
</g>
		<g transform="matrix(3.78 0 0 3.78 0 0)"  >
<rect style="stroke: none; stroke-width: 1; stroke-dasharray: none; stroke-linecap: butt; stroke-dashoffset: 0; stroke-linejoin: miter; stroke-miterlimit: 4; fill: none; fill-rule: nonzero; opacity: 1;" vector-effect="non-scaling-stroke"  x="-197.76" y="-38.86868152872832" rx="0" ry="0" width="395.52" height="77.73736305745663" />
</g>
</g>
</g>
</svg>